<mxfile host="Electron" agent="Mozilla/5.0 (Macintosh; Intel Mac OS X 10_15_7) AppleWebKit/537.36 (KHTML, like Gecko) draw.io/24.7.8 Chrome/128.0.6613.36 Electron/32.0.1 Safari/537.36" version="24.7.8">
  <diagram id="Ht1M8jgEwFfnCIfOTk4-" name="Quantum Shield HA">
    <mxGraphModel dx="1294" dy="904" grid="1" gridSize="10" guides="1" tooltips="1" connect="1" arrows="1" fold="1" page="1" pageScale="1" pageWidth="827" pageHeight="1169" math="0" shadow="0">
      <root>
        <mxCell id="0" />
        <mxCell id="1" parent="0" />
        <mxCell id="k5O6sOQgrpM4FuhWETTB-1" value="VPC" style="points=[[0,0],[0.25,0],[0.5,0],[0.75,0],[1,0],[1,0.25],[1,0.5],[1,0.75],[1,1],[0.75,1],[0.5,1],[0.25,1],[0,1],[0,0.75],[0,0.5],[0,0.25]];outlineConnect=0;gradientColor=none;html=1;whiteSpace=wrap;fontSize=12;fontStyle=0;container=1;pointerEvents=0;collapsible=0;recursiveResize=0;shape=mxgraph.aws4.group;grIcon=mxgraph.aws4.group_vpc2;strokeColor=#8C4FFF;fillColor=none;verticalAlign=top;align=left;spacingLeft=30;fontColor=#AAB7B8;dashed=0;" parent="1" vertex="1">
          <mxGeometry x="13" y="170" width="1057" height="570" as="geometry" />
        </mxCell>
        <mxCell id="k5O6sOQgrpM4FuhWETTB-16" value="Availability Zone" style="fillColor=none;strokeColor=#147EBA;dashed=1;verticalAlign=top;fontStyle=0;fontColor=#147EBA;whiteSpace=wrap;html=1;" parent="k5O6sOQgrpM4FuhWETTB-1" vertex="1">
          <mxGeometry x="10" y="350" width="1030" height="200" as="geometry" />
        </mxCell>
        <mxCell id="k5O6sOQgrpM4FuhWETTB-4" value="Availability Zone" style="fillColor=none;strokeColor=#147EBA;dashed=1;verticalAlign=top;fontStyle=0;fontColor=#147EBA;whiteSpace=wrap;html=1;" parent="k5O6sOQgrpM4FuhWETTB-1" vertex="1">
          <mxGeometry x="10" y="32" width="1030" height="198" as="geometry" />
        </mxCell>
        <mxCell id="k5O6sOQgrpM4FuhWETTB-11" value="Private subnet" style="points=[[0,0],[0.25,0],[0.5,0],[0.75,0],[1,0],[1,0.25],[1,0.5],[1,0.75],[1,1],[0.75,1],[0.5,1],[0.25,1],[0,1],[0,0.75],[0,0.5],[0,0.25]];outlineConnect=0;gradientColor=none;html=1;whiteSpace=wrap;fontSize=12;fontStyle=0;container=1;pointerEvents=0;collapsible=0;recursiveResize=0;shape=mxgraph.aws4.group;grIcon=mxgraph.aws4.group_security_group;grStroke=0;strokeColor=#00A4A6;fillColor=#E6F6F7;verticalAlign=top;align=left;spacingLeft=30;fontColor=#147EBA;dashed=0;" parent="k5O6sOQgrpM4FuhWETTB-1" vertex="1">
          <mxGeometry x="387" y="59" width="633" height="160" as="geometry" />
        </mxCell>
        <mxCell id="k5O6sOQgrpM4FuhWETTB-32" value="EC2" style="points=[[0,0],[0.25,0],[0.5,0],[0.75,0],[1,0],[1,0.25],[1,0.5],[1,0.75],[1,1],[0.75,1],[0.5,1],[0.25,1],[0,1],[0,0.75],[0,0.5],[0,0.25]];outlineConnect=0;gradientColor=none;html=1;whiteSpace=wrap;fontSize=12;fontStyle=0;container=1;pointerEvents=0;collapsible=0;recursiveResize=0;shape=mxgraph.aws4.group;grIcon=mxgraph.aws4.group_ec2_instance_contents;strokeColor=#D86613;fillColor=none;verticalAlign=top;align=left;spacingLeft=30;fontColor=#D86613;dashed=0;" parent="k5O6sOQgrpM4FuhWETTB-11" vertex="1">
          <mxGeometry x="109.75" y="29" width="183.5" height="121" as="geometry" />
        </mxCell>
        <mxCell id="k5O6sOQgrpM4FuhWETTB-33" value="Quantum Shield" style="shape=image;aspect=fixed;image=data:image/png,iVBORw0KGgoAAAANSUhEUgAAAggAAAIICAYAAAAL/BZjAAAAx3pUWHRSYXcgcHJvZmlsZSB0eXBlIGV4aWYAAHjabVDbDcMgDPxnio7gF2DGIQ2RukHHr4mdKolyEbZzhw7baXw/W3pNEEqSXLW0UsAgTRp1KxQcfY8IskeHAgV74dNfIKPYMsf94hkP/jCKjN2qfDLSdwjLVWjimfRmFA/x7Gi2sIZRCyMmFzAMuo8FpWk9j7AMuEL9zNGAat12sxxd3P6l2vbWbO8w0WBksMis3gDPI4m7FdkisthFtK+bQM5EJ7aQpz0dSD8xEFmc5cozmAAAAYRpQ0NQSUNDIHByb2ZpbGUAAHicfZE9SMNAGIbfphZFqg5mkOKQoTrZRUUcaxWKUCHUCq06mFz6B01akhQXR8G14ODPYtXBxVlXB1dBEPwBcXZwUnSREr9LCi1ivOO4h/e+9+XuO0BoVphu9cQB3bDNdDIhZXOrUu8rQhikKSKiMKs2J8sp+I6vewT4fhfjWf51f44BLW8xICARx1nNtIk3iGc27RrnfWKRlRSN+Jx4wqQLEj9yXfX4jXPRZYFnimYmPU8sEkvFLla7mJVMnXiaOKrpBuULWY81zluc9Uqdte/JXxjOGyvLXKc1iiQWsQQZElTUUUYFNmK0G6RYSNN5wscfcf0yuVRylcHIsYAqdCiuH/wPfvfWKkxNeknhBBB6cZyPMaB3F2g1HOf72HFaJ0DwGbgyOv5qE5j9JL3R0aJHwNA2cHHd0dQ94HIHGHmqKabiSkFaQqEAvJ/RN+WA4Vugf83rW/scpw9AhnqVugEODoHxImWv+7y7r7tv/9a0+/cDYxpyoJG0k4kAAA5eaVRYdFhNTDpjb20uYWRvYmUueG1wAAAAAAA8P3hwYWNrZXQgYmVnaW49Iu+7vyIgaWQ9Ilc1TTBNcENlaGlIenJlU3pOVGN6a2M5ZCI/Pgo8eDp4bXBtZXRhIHhtbG5zOng9ImFkb2JlOm5zOm1ldGEvIiB4OnhtcHRrPSJYTVAgQ29yZSA0LjQuMC1FeGl2MiI+CiA8cmRmOlJERiB4bWxuczpyZGY9Imh0dHA6Ly93d3cudzMub3JnLzE5OTkvMDIvMjItcmRmLXN5bnRheC1ucyMiPgogIDxyZGY6RGVzY3JpcHRpb24gcmRmOmFib3V0PSIiCiAgICB4bWxuczp4bXBNTT0iaHR0cDovL25zLmFkb2JlLmNvbS94YXAvMS4wL21tLyIKICAgIHhtbG5zOnN0RXZ0PSJodHRwOi8vbnMuYWRvYmUuY29tL3hhcC8xLjAvc1R5cGUvUmVzb3VyY2VFdmVudCMiCiAgICB4bWxuczpHSU1QPSJodHRwOi8vd3d3LmdpbXAub3JnL3htcC8iCiAgICB4bWxuczpkYz0iaHR0cDovL3B1cmwub3JnL2RjL2VsZW1lbnRzLzEuMS8iCiAgICB4bWxuczp0aWZmPSJodHRwOi8vbnMuYWRvYmUuY29tL3RpZmYvMS4wLyIKICAgIHhtbG5zOnhtcD0iaHR0cDovL25zLmFkb2JlLmNvbS94YXAvMS4wLyIKICAgeG1wTU06RG9jdW1lbnRJRD0iZ2ltcDpkb2NpZDpnaW1wOjJiNjc2OWM4LTY4MDgtNGYyNy1hYTM4LTViYjM1NWE0Y2ZmYSIKICAgeG1wTU06SW5zdGFuY2VJRD0ieG1wLmlpZDo0YzFhZTU2MS1kZWNlLTQ1YmItOTgxZS1lYzM1ODJhNGYxZmYiCiAgIHhtcE1NOk9yaWdpbmFsRG9jdW1lbnRJRD0ieG1wLmRpZDozYWYyZjA1NC1mNTczLTQ0ZjgtOTBhOS1jYTM3NzhlYWE5MmIiCiAgIEdJTVA6QVBJPSIyLjAiCiAgIEdJTVA6UGxhdGZvcm09Ik1hYyBPUyIKICAgR0lNUDpUaW1lU3RhbXA9IjE3MTU2OTY1MzY5MDUzMTEiCiAgIEdJTVA6VmVyc2lvbj0iMi4xMC4zOCIKICAgZGM6Rm9ybWF0PSJpbWFnZS9wbmciCiAgIHRpZmY6T3JpZW50YXRpb249IjEiCiAgIHhtcDpDcmVhdG9yVG9vbD0iR0lNUCAyLjEwIgogICB4bXA6TWV0YWRhdGFEYXRlPSIyMDI0OjA1OjE0VDExOjIyOjE0LTAzOjAwIgogICB4bXA6TW9kaWZ5RGF0ZT0iMjAyNDowNToxNFQxMToyMjoxNC0wMzowMCI+CiAgIDx4bXBNTTpIaXN0b3J5PgogICAgPHJkZjpTZXE+CiAgICAgPHJkZjpsaQogICAgICBzdEV2dDphY3Rpb249InNhdmVkIgogICAgICBzdEV2dDpjaGFuZ2VkPSIvIgogICAgICBzdEV2dDppbnN0YW5jZUlEPSJ4bXAuaWlkOmNhNmEzMjU5LTQ5N2YtNDk0OC05YzY5LWU2YWZmZWQ2MzAzMSIKICAgICAgc3RFdnQ6c29mdHdhcmVBZ2VudD0iR2ltcCAyLjEwIChNYWMgT1MpIgogICAgICBzdEV2dDp3aGVuPSIyMDI0LTA1LTA4VDE1OjU2OjE3LTAzOjAwIi8+CiAgICAgPHJkZjpsaQogICAgICBzdEV2dDphY3Rpb249InNhdmVkIgogICAgICBzdEV2dDpjaGFuZ2VkPSIvIgogICAgICBzdEV2dDppbnN0YW5jZUlEPSJ4bXAuaWlkOmYwOWNiZDRkLTBlZjUtNDBlZS04NWY1LWJjY2IxOTE5NGMxOCIKICAgICAgc3RFdnQ6c29mdHdhcmVBZ2VudD0iR2ltcCAyLjEwIChNYWMgT1MpIgogICAgICBzdEV2dDp3aGVuPSIyMDI0LTA1LTE0VDExOjIyOjE2LTAzOjAwIi8+CiAgICA8L3JkZjpTZXE+CiAgIDwveG1wTU06SGlzdG9yeT4KICA8L3JkZjpEZXNjcmlwdGlvbj4KIDwvcmRmOlJERj4KPC94OnhtcG1ldGE+CiAgICAgICAgICAgICAgICAgICAgICAgICAgICAgICAgICAgICAgICAgICAgICAgICAgICAgICAgICAgICAgICAgICAgICAgICAgICAgICAgICAgICAgICAgICAgICAgICAgICAKICAgICAgICAgICAgICAgICAgICAgICAgICAgICAgICAgICAgICAgICAgICAgICAgICAgICAgICAgICAgICAgICAgICAgICAgICAgICAgICAgICAgICAgICAgICAgICAgICAgIAogICAgICAgICAgICAgICAgICAgICAgICAgICAgICAgICAgICAgICAgICAgICAgICAgICAgICAgICAgICAgICAgICAgICAgICAgICAgICAgICAgICAgICAgICAgICAgICAgICAgCiAgICAgICAgICAgICAgICAgICAgICAgICAgICAgICAgICAgICAgICAgICAgICAgICAgICAgICAgICAgICAgICAgICAgICAgICAgICAgICAgICAgICAgICAgICAgICAgICAgICAKICAgICAgICAgICAgICAgICAgICAgICAgICAgICAgICAgICAgICAgICAgICAgICAgICAgICAgICAgICAgICAgICAgICAgICAgICAgICAgICAgICAgICAgICAgICAgICAgICAgIAogICAgICAgICAgICAgICAgICAgICAgICAgICAgICAgICAgICAgICAgICAgICAgICAgICAgICAgICAgICAgICAgICAgICAgICAgICAgICAgICAgICAgICAgICAgICAgICAgICAgCiAgICAgICAgICAgICAgICAgICAgICAgICAgICAgICAgICAgICAgICAgICAgICAgICAgICAgICAgICAgICAgICAgICAgICAgICAgICAgICAgICAgICAgICAgICAgICAgICAgICAKICAgICAgICAgICAgICAgICAgICAgICAgICAgICAgICAgICAgICAgICAgICAgICAgICAgICAgICAgICAgICAgICAgICAgICAgICAgICAgICAgICAgICAgICAgICAgICAgICAgIAogICAgICAgICAgICAgICAgICAgICAgICAgICAgICAgICAgICAgICAgICAgICAgICAgICAgICAgICAgICAgICAgICAgICAgICAgICAgICAgICAgICAgICAgICAgICAgICAgICAgCiAgICAgICAgICAgICAgICAgICAgICAgICAgICAgICAgICAgICAgICAgICAgICAgICAgICAgICAgICAgICAgICAgICAgICAgICAgICAgICAgICAgICAgICAgICAgICAgICAgICAKICAgICAgICAgICAgICAgICAgICAgICAgICAgICAgICAgICAgICAgICAgICAgICAgICAgICAgICAgICAgICAgICAgICAgICAgICAgICAgICAgICAgICAgICAgICAgICAgICAgIAogICAgICAgICAgICAgICAgICAgICAgICAgICAgICAgICAgICAgICAgICAgICAgICAgICAgICAgICAgICAgICAgICAgICAgICAgICAgICAgICAgICAgICAgICAgICAgICAgICAgCiAgICAgICAgICAgICAgICAgICAgICAgICAgICAgICAgICAgICAgICAgICAgICAgICAgICAgICAgICAgICAgICAgICAgICAgICAgICAgICAgICAgICAgICAgICAgICAgICAgICAKICAgICAgICAgICAgICAgICAgICAgICAgICAgICAgICAgICAgICAgICAgICAgICAgICAgICAgICAgICAgICAgICAgICAgICAgICAgICAgICAgICAgICAgICAgICAgICAgICAgIAogICAgICAgICAgICAgICAgICAgICAgICAgICAgICAgICAgICAgICAgICAgICAgICAgICAgICAgICAgICAgICAgICAgICAgICAgICAgICAgICAgICAgICAgICAgICAgICAgICAgCiAgICAgICAgICAgICAgICAgICAgICAgICAgICAgICAgICAgICAgICAgICAgICAgICAgICAgICAgICAgICAgICAgICAgICAgICAgICAgICAgICAgICAgICAgICAgICAgICAgICAKICAgICAgICAgICAgICAgICAgICAgICAgICAgICAgICAgICAgICAgICAgICAgICAgICAgICAgICAgICAgICAgICAgICAgICAgICAgICAgICAgICAgICAgICAgICAgICAgICAgIAogICAgICAgICAgICAgICAgICAgICAgICAgICAgICAgICAgICAgICAgICAgICAgICAgICAgICAgICAgICAgICAgICAgICAgICAgICAgICAgICAgICAgICAgICAgICAgICAgICAgCiAgICAgICAgICAgICAgICAgICAgICAgICAgICAgICAgICAgICAgICAgICAgICAgICAgICAgICAgICAgICAgICAgICAgICAgICAgICAgICAgICAgICAgICAgICAgICAgICAgICAKICAgICAgICAgICAgICAgICAgICAgICAgICAgICAgICAgICAgICAgICAgICAgICAgICAgICAgICAgICAgICAgICAgICAgICAgICAgICAgICAgICAgICAgICAgICAgICAgICAgIAogICAgICAgICAgICAgICAgICAgICAgICAgICAKPD94cGFja2V0IGVuZD0idyI/PkgA/EEAAAAGYktHRAD/AP8A/6C9p5MAAAAJcEhZcwAA7+kAAO/pAQPEVSgAAAAHdElNRQfoBQ4OFhAVTUO1AAAgAElEQVR42u3de5xkd13n/9epmqmZXKeTSiAo3dPxZyVBlGkQIZVmmY6XJaiYxp/8TBBMR30o+0NloobgEn7pGLKCqEzWRXcVTA/+hKw/d5l4I+tl06PUVNQfcQa5JHNW7LEbDJcUaQhkpjLdtX+cajKZ9Fy7qut7vuf1fDz6AY/4kFR9zznfep/P9waSJEmSJEmSJEmSJEmSJEmSJEmSJEmSJEmSJEmSJEmSJEmSJEmSJEmSJEmSJEmSJEmSJEmSJEmSJEmSJEmSJEmSJEmSJEmSJEmSJEnKhcQmkAqkNj4BjHX/Rrv/ueUE/x/7gceAWWAOmCVtzNmQkgFBUr4DwRAw2f2bOEkYOFUHu4FhN2ljt40sGRAk5ScYjALT3WCwpY//pkVgBthpZUEyIEgKNxiMATuB7QP4t+8Bpkkbs14IyYAgKYxgMNQNBjcE8Gn2AFNWFCQDgqTBhoNJsjL/lsA+2V1kFYXHvEiSAUHS+gWDkKoGx3OQrJow6wWT8qVsE0i5DAejwH3AKwL/pEPAFNWRhNa8IUHKESsIUv7CwRjZMsMtOfvke4BJhxwkA4Ikw8Gx9gMThgTJgCDJcHCsxW5I2OdFlQwIktYWDoaAfcDWSL6RIUEKXMkmkIIPB2ORhQPIqiCz3e8mKUCuYpDCDwezwLMj/HabgeupjjxCa95KgmRAkHSa4WBLxN9yMzBJdeSgIUEyIEg6eTiYAj7c/QEtgkmqI4u05h/w4ksGBEnHDwd3F/CbX0N15FJa8x4hLRkQJB0TDnYCv1zgFhgzJEhhcJmjFE44mCHscxXWkxsqSQYEqfDBYIjsNMZrbQxDgmRAkLQSDmaBbTbGqg6Snd/gCgdpnblRkjS4cDBmODiprbihkjQQTlKUBhsOttoYJ+WGSpIBQSpEOJgEdhP3Bkj9CAluqCStI+cgSOsbDqYo5h4HvbSLtDFlM0j9ZQVBWr9wUPQ9Dnol2yuhOjJLa/6QzSH1hxUEqf/BYAjYiXsc9JrLICUDgpTrcDCLKxX6xWWQUp+4zFHqXzhwGWP/rSyDnLAppN6ygiD1Nxy4UmH93EjamLEZpN5wkqLU+3AwRbGOag7FJNWRC2jN32dTSAYEKbRwMA2824YYmCtd4SD1hkMMUm+CQQwrFRa732EC2J7zK+IKB8mAIAURDmbJ92TExe4P6r7ud5og/7s9Pv07STotrmKQ1hYOxoC5qMIBQNqY7VYSFnP8vbaQrXCY8kaVDAjSeoaDSfK/UuH4b9nZPxslK9fnOSTcTW18hzesdHocYpDOLBzsIP+TEU9tk6F4NnvaBexwXoJkQJD6EQxi2Tb59CbxZd97N05elAwIkqJ9kz7zH8na+EwE4cjJi9IpcB8E6dR+GMeAfWRb++bZvWTDCmf2Bt2a30115FJgLMdtsBm4nurII7TmDQmSAUE643AwBdxD/rdN3kXauG7NGwhlIWERuCbnIcGdF6UTcIhBOnE42Am8KYJvchdpY0eP22YKuDuCtrkXmHJegmRAkE7lx28ImAGujeDb9O8Qo2yp5wz5r67s74YEhxwkA4J03B+9se6PXt4nIy6SLeubWYf2mo0gJCx2Q8JuHwLJOQjSam/Eu8n/ZMSVmfr9H19vzT9CdeQ+oA5ckuM22wxcR3UkoTU/68MgKwiSVsLBNHBbBN/k1DZA6n37xbIMFJyXIBkQpMjmGwx2I6D42tJ5CSoshxhU9HAwRhw7BALsAa4Z6Ftva/4Qrfl7ItgrAbLhEvdLkAFBKmA4iGW+AWR7HEyueY+D3gWFGPZKAPdLUIE5xKCihoNY9jcAuJ20MR1oO08Rx14JkFVoJp2XIAOCFGcwiOXQoRU39n0Z49rbPJZlkOA5DiqQkk2gAoWDMWAuknCwCFwdfDgAuj+mE2SrK/JuC/AP3eO+JSsIUgThYAfw7ki+zWCWMa79GsS0DBJgF9lGVA45yIAg5TAYDAE7yf8RxSsGu4zR67Ha9XAppKLkKgbFHA5WljC+IqI31uty/caaLYPcTXXkAuDKCK6JSyFlBUHKWTiY6r6pbonkG/X+NMYwrtHdEX0jhxxkQJAC/+GJaQkj5GGlwplfqwmyKk8sQc4hBxkQpAB/bEa7PzaxTIJbJJuMOBv5dYvl9Myjr9uOaEOdDAhSzn5kJrs/Mr6J5vP6xbY/BTjkIAOCNPAfl9iGFPK9UmFt13KGeFY4FC/oyYAgBfJjMkpcQwrZW2famCr4dY1pzwpwyEEGBGldf0RiG1IAuIm0sdOLG+31dchBBgSpjz8csW20s/KGOUXa2O0Fftq1jm3yIuR1F0wZECR/MPzBCDAQxjZ5EawWyYAg9eyHYgcwTVwlZ48PPvXrP0NcVSOvvwwIUg/eIGeAayP7Zk5GPP17YYq4dl4Eh5dkQJDO6AdhohsOtkb2zW50RvsZ3xNjZCdCbonsm90FTFtNkAFBOvkPwTRwW4RvixPON1jzvTFKfMtbwT0TFBhPc1R4nX91ZBb44Qg7/wnSxkNe5DVqzT9GdeQe4DnAWETf7BLgDVRHFmnNP+CFlhUE6alwEONERHD9e7/vmXdH+M32dKsJc15kGRBU5E4+1omI4HK29bh/JojrRMgVTmCUAUF27pF27vGfxBjOfTRKnPMSAO7tBgUrUDIgqDBVg2niOmRpxf5uOJjzQq/7PRXbLpsGTg2MkxQ1iI58ZanaKyL8druA60gbj3ih11lr/hCt+d1URxaBayL7dpuBKaojF1AdeYDW/CEvuKwgKLZwME18yxdXON8gvBC6JcJvd5BsyMFqggwIiqbDniHOMWL3Nwjznov1HIcVbq4kA4KsGgRsZX8DO+lw77+dxDnXxWqCDAjKbcc8Srwzy7M3uLSxwwudi3txkqyCtSXae9FqgnqsZBOoTx3yDmAf8Q4p3Gg4yJFsL4EJsopPjN4E7OsuG5asICjYqsEM8Y77ul9+vu/PmJdCWk2QAUHBdr7TwA7iLeO6ZXI89+pUNyjEeq86N0EGBAXR2ca8QmGFSxjjvG93E99x4oZaGRAUTNXgtoi/4UGyHewcUojz/o35HJAVnukgA4KsGvSYe+AX536O9VTIY+/nHW4BLgOC+vnGNU2868pXOKRQzNAb+5DDItkERu9tGRDU0w50ols1iLkDdUjBADxD3EMO4GocGRBkp3laHFLQyj2/g6xStiXyb+qSSBkQdMYd5RRxLwdb4ZCCjr33izDPBrKq2Q4nMcqAoNPpHHcS74ZHR3eODinoeM9BETZWWrGHrII254WXAUHH6xB3EPfSxRWuEdepPhexn+WwYhHYSdqY9qLLgKBjO8GdxD0JcaUT3EHamPGi6zSej1Hi3kb8aO7EKAOCvt7x7ST+SYiQzd6etIyqNTwv0xSjwgbunWBAUOE7u5jPTziaxzOrV8/NBPEv+V2x2H2B2OlwnAFBdnAxdnCTlkvV42eoKMt/V7jawYCgyDu1UYoznADubaD+P1NFmcC4Yk83KLjyx4CgiN52irI6YaVq4JayWs/gPUMxJjCucJOlyJVtgkJ0XlPAPQWqGqxMRLQUqvXRmn+M1vwM1ZEEmCjIt74S+HdURw7Rmn/Am8AKgvIVDCbItost0lvN7a7h1oCfu6LswHg05ycYEJSTDmq0GwxuKNC3dt22QnsOdxL/qafH2kM27OBzaEBQYB3SyjyDoixbXOGOiAr1mZygOKuFjn0mp90/wYCgMDqiqW7VoEgd0WK3amBZU6EH9+kCVhMAbsf9EwwI8g1lnbl8UT6r+QnybrRkQNA6djZFOW1xtc7GcxSU52rCDMVZUXS0g2TDDj67BgT1qYMZpXgTEFd4HK1ieY6LtrmSQcGAoD6/eRTlXPrVqgZueiSrCXHZT1YNnPVmMCDozDuRIq5MsGqgIlUTinDM+omecZdGGhBkMLBqIB3neZ+mmCsdDAoGBBkMrBpIJ3n+JyjmSgeDggFBJ+kcpshKjUUNBlYNJKsJBgUDgo4JBtMFf2u4l2zCklWDXj3cN99xfgfeksCvdN71tp6vP6/U6j8N/H07bf6trd23asJOinWmg0HBgKCjhhKmCh4M3A2xx8o337FhKbuvfgl4TgIXd971ti/2ISC8H/gR4PeBt7bT5ryt35e+YpriHNN+sqCw075i/ZRsggEEg+yBn+s+9EUOB7uAUR/4Hrr5ju9agr8Hfgd4zjr1Ia8HPlWp1W/bVKuf60Xosex00ku7P5BFth34ELXxuW7VVVYQoqsYFHny4QpPXux9MLgceCfwA8c+132uILz+mH88D9y6oZT8/tce3rvkhel5PzJFsecpHduP7ARm3MLZCkJeH+jR7rGvKxWDoj/YtwNjhoMeJfyb76hy8x2/BnyMbMOdQYf+YWDXkeXO3kqt/nKvUM+rCTPAKFn1rei2Au8G5qiNT3dfwmQFISfBoLhbIq9mf7dqsM+m6EGyv/mOyjL8JPD/ABef5CFfzwrC0ZaB/wb8Yjtt/pNXred9zAQuiTyWx0xbQQj8oa2NzwL/bDgAskmIN5E2xgwHPXLzHd+3DA8Cv3GycBBA//Ia4B8rtfo7NtXqvuH1tpowS9oYJavKKXMD8M/Uxme7AUpWEIIIBlNk8wu22Rhf55HMvQ0G3wa8C/ie03l2E3jWgCoIx3oEuK2cJL/7xIG9R7ygPe1/RrvVhO02xtNkB0PBbvshA8J6P5ROPDz+Q+kkxN4Fg2eTzV/5CWDDGTzkoQSEFR8DfqGdNv/Ci9vzPqno5zocz2I3QO10+MGA0O+HcKwbChxCeKbbuw+haX2tD+fNd5zVgf8beCswtIaHPLSAANAB/gS4pZ02P+XV7suLi3snrO5espUPLq82IPT0wZsi24DGMt4zeX5Cj5z75rcnj3c6Pwj8MvDNPXjIQwwIK9rAbyXw9sNp84te/Z72V6M47HAiB7vtM2O/ZUBYaxp3GOH4D9kO03iPvPmOF9PhXcDLe/V8dlcxPBpoQFjxKPBLpYT/cuhA87A3Qk/7MIcdTm5XNyjM2hQGBINBbzic0Ltg8FyyrZFfB5R7/JA/q/MrwQeEFQ8Bbz5/44Y/+eIn/6bjjdHTPm3a/uykrIQexWWOqz9IU7ix0YncC1xK2pg2HKzxx/vNd5zDm++4Ffg42ZyWcsGb5Arg3i8/eeTPK7W6K4J6KduyeQw3WTqR7WTLJHe68ZIVhGODwSiO2Z2IqxN69fb9lreX2sud64A7gZE+P+R5qiAc7Qjwu8Bt7bT5iHdNT/u6CbLlf/Z19ndWEE6xarDPB2ZVi8DtpI1Rw0EP3PL2q9od/oYkeT9JMkySdPr8l9eW2kC2W+RDlVr9lk21+lnePD2rJsySNiaAG7s/hHqmrcD93aEZKwgFDQZDZBN4XLK4ul1kkxAdSlh7MBjtVgxes57hPIFnd955ax4rCMf6NPCLlVLyh48/vHfZG6qnfaDzrU5sDzBZtH6w5IPBrOHguA/EC0kb7oS41h/oW+48n1vuvINsg6Afxsrdmfom4L+2lzuzlVr9pTZHz6oJjzk/4aS2A7PdYWgrCAUIB2PdcGBifjqXLfZI+ZY7Nyxlb9i3A88Z4EN+Seedb42hgnC0JeD3gVvbaXPeu63nfeNOHG5dzSIwUZRzZUoFfgAMB8+88W/qzjMwHKzVLXd+5xI0gd8eZDiIOX8BPwp8slKr37apVj/XJulZRWFfd37C1WSnsOopW7qVhDEDguGgKG4HRkkbO22KNXrLnd/MW+78QxI+TMI2EjoB/MXsXGC6kwWF1225Ytx5Vb0LCrOkjTGcyHi8kDBqQDAcxGwX7mfQa28EfgAnAK+3YeC/HFpatpLQ+6Awc9Sx0os2yNdDwu7Y90ooTkDILuRuwwHw9AmIczZHz3UC+ysKQ1l/g8I0YFB4yjayfXMMCBGYxb3I9wBXkzYKM8lGUk9DwmNHBYW7bBCujXmfhGIEhNr4zm7aK6qDwI3dYDDrM93Pd9i+b3pUpI2SFHZQ2AFciksjb4t10mL8ASHbUvRNBQ8Go6SNGXs1ST0OCnOkjSmDAlGu/Io7IDw178BgoPWqIGAFQQaFwtka41BD7BWEaYo1KTE7MwHGDAYD4xHFMigUMyjsiG3pY7wBIRsTKsrQwkowGHXJYjAhwVUMMigUKyhs6b6UGhByoAib/hgMQhPeEAMOMcigsG5uiKmKEGdAyCYmxryPuMEg7OqBn0cqblCIpooQawVhR6Tf6yBwk8EgFyHBIQbpxEHhLuLccCmaKkJ8ASG7MNdGGAxWViXsNBj0xqZa/aKe/486xBDjfXLWplr9HFui50FhB/HuzDhlQPDCrGcwmLFX6Y1Krf68Sq3+Jx24uU/Vg9CqGVpbAw53D4O6/uzLryrbIj0NCkfvzBjToVAGBC9M36xsiWww6HHFoFKr/0dgH/B99G/vfocY4jMCfODIcucjlVr9KpujL0Fh5VCoG8n/MdNbY9hdMa6AkF2QPJ+3cC9PnZUwa6/RG5svq2+q1Oo/24GHgZ8BKn37l4W51bIhoXeuBP66Uqt/sFKrj9ocfQkLM91jpq/u9om+rBoQemIih595kaeOXZ40GPTOhc97WVKp1V+13GE/2YSoC/v+L02AhE5Af55x2Htl4DrgE5Va/e2bavXzbZK+BIVZ0sYkT618yNs8hUkDggHhTB3kqaWKHrvcY5VafezxI0t/3n0DubzATWH1oH/OBt7agU9VavUfO+uyqzbYJH0JCisrH0bJVnHlZZ7C1ryvZojths5DQNgP7HRuQd+CwSXAL5GV9zau+wfIyvn+KBfLNwDvW+p03lip1W9up83/aZP0JSg8RrYB3k5q45Nky9lD3+9mAshtXx9PQMgOZgr53IVdwIxDCP2xqVY/q5Ntrf2WAd8HBoTiehHwF5Va/Y+AN7fTZmqT9C0s7AZ2d9/Qd3RfCELs/3M9UTGmCkKIF+JgNz3OOITQH+deflWpvdz5PzvwTrKxyhAYEIqrRDb2/MpKrf6eBO48nDZbNkvfgsIc2SFJ09123wFs83fJgHCsoYA+yyIwTdrY6RPcP5Va/SXt5c6vAS8L5kNlmxIZELQJ+LkOvL5Sq0+XEt576ECzbbP0LSg89vWXsWyr/d2BVBRyHRBimqQYyoU4CEwYDvoaDIYrtfr7gb1BhYOnqgfug6AVFwPvWe7wYKVWf2X1W17mmpL+h4VZsrH/EFY9bMlzU5a8m3oeDsZIG/tsij68ktXq51Zq9Wngk8DryZabhSW8PRDcajkMzwf+9CtPLv1ZpVb/Vpuj7yFhH6HsQ5BVNAwIYspzEnrv7MuuKldq9dd34FPAbcC5oX7W7rYDnZD+vIOCuj2uAR6s1Oq/WanVn2WT9DUk7Cb/OzIaECJiOOixSq3+b450OnuB9wPPzcFPQCe0PwsIwdkI/DvgoUqt/vObavXNNknfzNgEBoRQjNoEPQsG31Sp1f8AmAVeYoucMSsI4boA+NUOfKxSq7/6vMvH7Y97L4Th3gkDwuDNBfAZxnwe12ZTrb6lUqu/A/g48Jr83aNJJ8A/b6yw1YD/fnh5+a8qtfq32xzRBYTcimmZ45yXM782X3bVxuVOZ6qT7YJ4SV6/R1JKAJZD+kjeXbkxATxQqdV/D3hbO21+xibxpc0KggGhsJ79rS9PKrX6dy93On8P/Haew0FXcMscnaiYu5e2G4FPVmr1WzfV6ufYJFYxDAhrFcZOhaM+C6euUqtf8aXDT94L/Dlh7X62hvf1JMyljsqb84E7OtmJkdefc/lVZZskt3I7eT22STGDPuXLgHAKNtXq1UqtvrObrF9FXGVwN0pSL20FPvDkcudvKrX6VTbHaXOIYQ1iO81xrvtAKUCbL6tvWu7wUx14G3BRpF8ztB9lA0Ic6sBfV2r1/w94SzttHrRJTkkIW/DntoLg+eXx3YyhVg3OWe7wABD1LnKJZzGof8rAdcCrKrX6a9tp849skhzI8c66sQWEQSe1bT4Nx88IwOUF+J7BlfWdgRCdc4BvthlOyahNYEBYsQ+41suqQSkljvtLBgQDglZTGx/yPIbicohB0lH2GBDCEcIP8xjZ9sAqoBJJpxPaEIPLHFVcozaBAWGF22pqsD/GpaSThLWTonMQVGSuajMgmFgVhrJ7D0h6yqwBIRxzBgQNNCA4B0EKQ218wkZYm7h2Ugxju2UV+4HqJIH9lZLEwCINRq4nrDvE0Hum1gJLEucgSIEIYeO6XM+LizEg7McNizS4gABulCSFwHMYDAjPMOiSzqi3VXE5SVHSUeYMCAaEo7mspsC64/3LtoQ0cBMD/wQ5nxdXivCmGPyYT23cQ5sKHBAC/PPCSLKCEAh3UyyoIIcYzAcqptEB//v35L0BYwwIs8BtPhsaSEDI3tYdYpAGz+FeA0KQJrCCUEghnuZoAUGFE8Yw75wBITxzPh0alHJ2WJP7IEiDFcISRwNCcNLGHLXxQX+KCZ/PggaEJMhlji67VNGEUEF4LO+NGOsQwyKwxWdE6y3EZY5WEFRAIVQQcn+6cKwBYR+wveA3pwagnAUE39ilwXKpuQHhuAZd2rF6UdyAAK5ikAZt8C9paWM2741YivTmCGGzpAmf0QIGBJJOcH9ulCQrCLKCIA04cbvVshSCQR/YtyeGRoy1gjAbwGewglDIgEAntL+yBQQViVvdW0HIAW9SKwhBMB+oYEKYJD4bQ0PGGRDSxmwAeyG4kqGAuvsghBYQXFUhX85kQAjIqE1QwIBA4mFNki9nswaEsO1hsHsheFBIATnEIPlyFouYA8Lgt7msjY+RNvZ5mxVH2VUMkgEhgj0QIN5VDBDGNpeOhRVMAp3Q/kqWEFQszv+ygpCDCoLHPhdOqWQFQRqwQe9kuyeWhow5IFhB0LpziEEaoDB2sH0sluaMOSDMBfAZLHUVTEKQAcFljiqKEF7Kopl3Fm9ASBtz7oWgdQ8I2T4IQf0gOwVBBRJCnzsXS2PGvg/Cfga7J7enOhaMZzFIBgQDQj6EsNRxIpYlLzIgSIFziMGAcMpmGexmSeCmHYXiJEVpoLYP/BOkDScp5sRcAJ/BgFAgVhCkAamNh9DX7ompSQ0I/Tfhk2tAkFSIl7HHYmrQ2APCPm9aracyeFiTVNyXsai21o87IKSNx6iNLzLY1QRbqY0PxTQupeMLcSdFj3uWFQQDggHh+Bds0BNXxnDL5UJISJbxNEepqAHBIYacmTMgaL24ikEamBBWMETVzxclIJhsZUCQYhXGCoaDsTVrEQLCLHDbgD+DWy4XRHerZYcYpOK9hM3F1qhWENbHdp/fYrCCIA3ERCAvo1EpRX/bpI0wUl0YJTD1+4FKkk4pSZYD+3MVg2LnGQxWEM7YHsKYqDjncxx/QMAhBmm9hfACZkDIqVCWOu72OY4+ILjMUVp/2wb+CSI8lK8oASGEZDfhMxy/crZR0pItIa2T2ngIfevBGJu2SBWEQXMlQwF4FoO07kb9jTEg5P3ibaE2PhrMpEn1KSCUDAhS8V6+DAi5lZ3JcBDYGsCNbECIWLkUZEBwFYMMCAYEA8JJLmAIAcGJilFXEMKbpChFLoR9ZgwIEQSEawf8GSZ8liMPCCXnIEjrpjYextyuSIeOixYQBs2JirEHBPdBkIrWp+6JtXENCOvLiYqRK2fhwGWOUnECwr5YG7c4ASFtzFEbXwS2DPiTTAAzPteRBgSHGCQDggEhl0LZUVGRCnSZo6sYFKsQJijOGRDiMGtAUH8DgnMQpHURxg6KUW6xXNSAEEIpyKOfYw4IpcQ5CFJxXrb2x9zABoRBJd+IU2ehA4I7KUpFCgj7Ym7gYgWEsCYqGhAiVE4wIEjr148aEAwIPTXL4DdMch5CpEpJKbghBucgKDq18SEGvzOuASFC7qiovgl0maOrGGT1oB8iHyouagXhtgF/hi3UxsdIG/t8ziOrIGQBwUmKUn+5g6IBoS/2BXSDGxBiCwh4WJO0Dib8LVmP/qxo0sZjhLE0ZcJnPMIHKkk6pSRZDuzPC6PYeIKjFYS+XthtBgT1WrlUch8EqZ9C2SCpACvRSgW9xUK4sFupjY/6tMdWQaBTSlgO7E+KSQjzDxaLcOhekSsIIZjAg5tiqyCEOEnRVQyKSQgVhNkiNHQxA0La2OfJjupPBcFJilIBAkIhJphvKPBNNov7IajHyi5zlPqnNj4WwIvdyu+HASFiIWyYlM1DKMBYVnECgpMUpehfqgpylk6pwDfarDe8ev5AhbnM0TkIMiD0zv6iNHZxKwhpY5baeAifZBLnIcRTQejhWQydTidJ/HGXQgsIs0Vp7A0Fv9n2MPgNN6wgxFRB6OlZDIkhQVrh/AMDwgAu9KADgucyWEE4UUaQFNbLlAGhQAHhtkBufANCDAGhHNw+CEYMxWIygM+wv7tdfyGUCn27hTMTddJnP5IHKrxdFJdKiRslKQqev2AFYd2FMA9hO7XxoSIl02grCKWy+yBIvVYbD+UlarZIzW5ACGMeAmTDDLu9HDkPCNlOig4xSL3vHw0IBoR1t5sw5iFMGhDyr7vngFstS/EFhINF29TOgBDWuQzKuXIpuArCYqd/n+evgR8EzvHKq2+yU2+3BfIyWSgGhMwsYWy77HLH3AeEQLZa7nCoQ+fg+KVbH+3Xv6KdNt9bqdX/ArgTuJ6iT3pW7C9PswYEA8KgHwQDQp4DQjLYZY7dasFnO3QeuWp0pO9DHe20eRB4XaVWfw/wLmDcu0A95gTFATHxZ0IpHU15KXL+QJWS5QH9LZWS5JESyf4rtz73s/XR4XWdB9FOm81KKXk58Frgn70TFFkFYX8RV5lZQQBIG3PUxg8CWwf8Sba53DHnAWEwFYQvdzqdz7x45BueGOR3f/zhvcvABzfV6vd24CbgzcD53hU6Y9nyRrdXNiAEcQPcEMDn8PCmHFvXSYodDnXgX1/4jZd8OaQ2OJw2vwbcWanVfxe4o/tc2dcor9WDwgYEhxieEmlnklkAACAASURBVMowg7sq5jkgJKXlclJa6vNfu5SUFkql0oHQwsHR2mnzX9tp8yeAlwJ/5d2h3PaHaaOQS9BN9eElxGsdZshzBaGvQwydDp0vAV98/rMvzs1uje20+eD5V4x/z6Gl5UngHcBl3ik6qez0xq0BfJJ7i3oJrCA8lRAfI9t2OQQTXpC8BoRkuVxKlnr9V0qSL5eS5NPPf/bFn8tTOFjx5YcanXba/FAp4QXAzwMt7xblpB+cLeoFMCA8ncMMWtsDlZSWe/uXPJGQLFzxrOpnrnhWtZ339jl0oHm4nTZ/PYHLgfcAbe8aHceUAcGAYEAwIMRUQej0pGqQcLic8LlyqbRw2cUXfi22djqcNr/YTps/DbwI+DPwxEkdJZzdEw8WefM6A8LRsn22DwbwSbYEdHqZTicgJMlyOUmWzvSvRHKkRPKlUpJ85puqF3zlmy4civqHs502P3HexvL3A98LfNw7SIG9JM0W+SIYEKwiqJcPVKm0XEqSpTP8e7xUSv519MItj41eOFSYA58e/eRHOu20eV85SV4E/DTwOe+kwpvy98CAYEAwIERlY6nU2VgqL53O34ZS+VC5VPrC8ND5rZGh848Ute2eOLD3yXbafE8CzwN+DTjkHVVA4QwvWEHwbjxG2pgFFgP4JA4z5FA5Oa1VDO1SKXnsOeef8+g3nH+uk/W6DqfNL7XT5i8ALwD+O85PKJpQ+r17i77c3IBgFUG9DAil0nK5VFo6yd+Rcqn0eLlU+tKzzj3bt+TjaKfN9MLNG38I+E7go7ZIYUxZPTAgGBBO7gZq40NejvzYUCotbyiVlo7zd2RDKXminCSLF569+YkLz97sm/FJPPKPf91pp83ZDUnyUuDHgM/YKhELa3hhd9EvhwEh/ORoFSFXFYTVlzmWEtqlhK+ev3nTE1vO2rRsS52erx3Yu9ROm3d35yfcCXzVVolSKP3d/u6qNgOCjpGNO93rA6PTDgjZMscjK3+lJHmylCRPnLup8sS5mypLttDaHE6bX2mnzVuB5wMfAAxbcZmyemBAyINQbpBru2U35eGBKpWWS6VkqVRKlpIkefKsjRsOn7Vxg8Ggx9pp82A7bf4I8DKgYYtEwOEFA4IBwSpCzDaUkuVyUlqqlMtPbtpQNhj0Pyg0N5aSlwOvBf7ZFrF60AOF3j3RgHAqwhpm2OEFyckDlSSdcimx7L2Ovvrw3uV22vxgkvDtG0uJcxMMCFYPDAiFulG2do8+lXQchw80Dz3+8F7DWR6Fc7QzwIwXxICQtyRpFUFSrELp3xxeMCCcIlczSFKR+jeHFwwIubxhtlAbn/JySIpK1q9tCeTTzHhBDAinLm3MEMbZDBDOJB5J6pVQqgcOLxgQzkgoVYTt7okgKRpZf3at/bwBwYDQG05WlBSLqYA+y4yXw4Bw+tLGbuBgMA+UBzhJMiD0ksMLBoQ1CWeyoisaJOVdbXyScPY+cHjBgLAmMwF9FocZJOXdlP27ASEOWflpfyCfZhu18QkviqRcCmty4n6HFwwIsaXMKS+HpJwKqQo64+UwIMR2I93gkkdJuZNNsg7pBcf5BwaEHsi2Xt5lCo/Gqyq1+sttBp1IAp8FPgB4EFRvTBLOzon3kjbmvCQGhBjTpkse1+YK4P5Krf4HlVr9UptDqzmcNh9vp80fAcaBvbbImk3bnxsQYq0ihLQnwharCD15Bl4DfLxSq9+xqVY/zybRatpp84GNpeTlwPWAb51nIptcHcrSxsXuVvoyIPRUSDfVlJejJ84Gbu3AJyu1+uvOvuyqsk2iY3314b1L7bR5TwLPB24Fvmyr5LZ6YDgwIER/Y231lMeeei7we0c6nUalVq/bHFrN4bT5tXbavBN4HnA3cMRWOWn1YBTYbj9uQIhbNqklpMmK016Unnsp8DeVWv3/rdTqwzaHVtNOm59tp80f694v99siuemn3PvAgGAVQWtSBn6EbNjhbZtq9XNsEh0nKDy4qVT6buDVwAFbZNXqwQ0BfaKdXhQDQj+rCLOEM1nRKkJ/nQv8UiebyPjD51x+lc+NnuErDzeW22lzdynhBcDPA1+yVb4upMnUi7h6wYBQsB9lqwj9Nwrc8+RyZ7ZSq7/Y5tBqDh1oHm6nzV9P4HLgN4F2wasH4W2MlO1pIwNCn2+0LI0aWIrl3wDNSq3+u5Va/Tk2h1ZzOG1+oZ023wi8CPgw0Clw9WBLQJ/HftKAsA6yFDpjFaGQNgA3Ag9VavVbNtXqZ9kkWk07bX7ivI3l7wO+F/h4AasHIQ0v7HHnRAPCegptsovpeH2dD7yjAx+r1Oo/eP4V44lNomM9+smPdNpp875SkrwIeCPweasHAzHj3WhAWM8qwhxwr1WEwvtm4L8dWlr+i0qtPmZzaDWHDux9sp02fzPJtvn+NeCQ1YN1c9CdEw0IVhFg2jMaBua7gL+r1Oq/VanVn2VzaDWH0+aX2mnzF4AXAB8izvkJVg8MCOouedwTVBXBMxoGaSPwBrL5CTdtvqy+ySbRatppM22nzR8EvhN40OpBoV7kDAgFElo63WEVYeAuAH59ucP+Sq3+fRc+72XOT9DxgsJsOUleCvwY8JkIvtLOwKoHu1zaaEAYZBVhhrA2TtqCExZDcTnwx48fWfpwpVZ/vs2h1TxxYO+Rdtq8O4FvAe4EvprT6sEoYe2aiH2hAcGb8Jne1H1YNXgJ8ArgwUqt/h831eoX2SRazeG0+eV22ryV7MTIDwJL9oNr4tJGA4JVhOOY8cIEpQL8TAc+VanV37j5snrFJtFq2mnzYDttvpZsY669OakeTFg9MCAoPz/I26mNT3pZgnMR8J+WO3y0Uqv/W5tDJwgKzY2l5OXA9UDob8IhVg9mvYsMCKHYSVjbL2efyQmLofpW4L5Krf7HlVr9MptDq/nqw3uX2mnzniQbdrgV+EqA1YMpYLsvbPEo2wQ91po/RHVkMzAR0KcaAg7Tmh9Ykj73WVsPHel0PgW8mGx2v56SAJcBP1muDg9tqA7/3VJr4ZDNomMttRaeXGot/M15z976D4e+OB9SOBgC7un2NaE4SNqY8q5ZW8ek/jwsc4S1zAfg0kFP1tlUq5/dgZuAW4DzvFlW9TngbeUkmXniwN4nbQ7loM+bBm4L7FPd6M6JVhCsIpy6F9KaH+gDs/IGVK4Ovx+4mKzE7lDX050LvKoD31+uDh9Yai3M2SQKOByMku0GGRKrBz1gx9w/Ic5F2E5tPIjdzdpp8zPttPmjwDh5maE9iEAHf1mp1f+wUqt/k82hQIX4lj7tZVk7hxj6m6ynCa/stgiMhrSr2DmXX1V+crnzw8A7gGFvnFU9AdyVwC8fTptftjkUSB83GWj1YNSLYwXBKsLp2xJa4u/O0P5Adwe528nrDnL9dRbwlu7+CVNnX3aVw4MadDgYsnoQNzuZfsrmIhwCrgnsk11BdWQ/rfmHQvpQS62F9lJrYbZcHf594BKywGCV6+nOAyaX4ZpydfihpdbCv9gkGojqyDsIb1mjcw96yM53fZL2HNkJiyFZBMZC3oK0Uqu/DPh14Du8iVa1DPwBcEs7bRoUtJ592gRwf4CfzJULVhByl7QfA0LbzXAzAaxqOElF4V8qF43c3YFPAy/BZZGrBfxvJds/obKhOvz3S60Fl0Wq3+FgCLiPsPY8sHpgQMip1vw+qiOvJiubh2SU6sgirfkHQm26I4/OLy+1FvZvqA6/t/uPXgxs9KZ6mgrZktrXlavDn9988cgnn3x0vmOzqE8vPO8gO3gsNDfRmt/nBertG4jWJ3VPEGZJbhGYIG3k4sGq1Or/B/BO4NU4yfZ4GsDPt9Pm39oUKkg/toe0MeEF6i072PWSHRiyJ8BPFtyqhhNpp81/aqfNHwK+G/BtYXXjQKNSq++q1OrPtTnUQzsD/VzTXhoDQt5NBfq5tlEb35mnhmynzfvLSfIdwE+RbU2spysDPwp8olKr//tNtfrZNonWWD2YBrYFWj2Y9QL1pxPRemnNP0Z15ALgygA/3ZVUR/bQmp/LS3N25yd8dEN1+H3ABuDbu/+pp2wCvgt4bbk6vHDWxSMPt52foNMPB2PABwP9dFfTmn/Mi9R7zkFY/wct1IOcIMBdFk9HpVa/HHgX8P3e2yd424Kfa6fNB20KnUaftY/wlmoD7HLlQv84xLDesh/f6UA/3RZgd16btp02H26nzR8AXgl83JttVduBv63U6r9TqdUvsTl0CqYDDQeLwA4vT/84xDAIrfkHAl32CNnSx4TW/Gxem3eptfBPGy8afl8HPk+2f4Lj7898MXgR8OPl6vDyhouGH1x6dOGIzaJVqgcTwG8F+uneSdq4z4vUP5ZhB/vg3R/wJ7w6hok/m2r1aic7MOunyPYL0DMdAG4+q1z648WHGs5P0EofFfJwqAcyrdObhAYh+/HdFfAn3N3tIHLtcNp8tJ02f7b7xvw/AH8An+ky4N4nlpb/R6VW/zabQ10zgYYDCHdFmAFBPbOD8E57XJHr+QjHaqfNT5y/sfxK4AeAh7z1VvU9wEcrtfpvbqrVL7I5Cl092AFcG+inu9dljevDOQiDlJ32+AjhndOwIvfzEY72tS/8C0uthQMbLxp+bwdaZPMTzvJGfEaf8B1k8xMOb7xo+B+OPLqwZLMUKhyMdasHmwP8dIvApMsa14dzEMJ4IGcJ79jUo72atLE7tmav1OrPBm4HfgzPdzieTwA3n7OhfN+XPvURh2fi74uGgFnC3BAJ4HbSxrQXyoBQpIdylGydcajjfbk6r+EMgsI2smOlr/aZWFUH+DPg5nba/JTNEXVfNAPcEOin20/aGPMirR+HGEKQ7bC4mexEvhBtBupUR+6hNX8otuZfai187txnbf29I53Ox8hOi7zQm/IZLxKXAT9Rrg5XN1SH/26ptXDIZokuHEyRrfgJ1fV52unVCoJ6/YDuI9zSHmSTgyZjvgSbavWzOvCzwC8SbkVn0D4PTJeT5L1PHNj7pM0RRd8zRja0EOo9fxdpw02RrCAUWHXkAeB6wpwcBHBFTJMWj1NNOLLUWmiUq8PvBy4AXoCrfY51DvB9HfiBcnX4f1Wfc+k/f/UL/2Kr5DccDJGtWNoa6Cc8CFwXY/XSgKBT15p/hOrIIeCagD/lBNWR/bTmo14quNRa+MpSa+GPytXhDwNXBNx5DtIlwOsPLS1vK1eHH1xqLbRskly+mPxn4BUBf8JXkzZcmjwADjGEmehnCXtVQ9STFo913uXjpcPLy68B3mlQOK4ngN9I4D8cTpuLNkdu+pop4O6AP6FDCwYEHfPQhrzF6Yr93ZBQmPXIm2r1czrwc8CbgXO9UVf1r8Ct5SR5/xMH9nq+Q9j9zBjwDwF/woPAWJH6GAOCTvXhnQQ+FPin3EPamCjapanU6iPA24EfwfkJx/NRsmOl/9qm8CXkDF3tjomD5RyEULXmH6I6cikQ8rrfUaojl9Ka312kS7PUWlhcai18qFwd/kvg+cBzvWGf4RuAG8rV4eeXq8MfXWot+BYYkmxCdMjDZXeRNv6zF8qAoOM/xLPAKwnzWOgVY1RHDtKa31e0y7PUWpjffPHI3csdPk22PfH53rRPk3QD1E+Uq8Nnb6gO//1Sa6Ftswy8ejBD2JMSXbUQ0AOssB/m0McJV0S5HfOp2lSrn9fJ5ib8HHC2N+6q5oG3bkiSD3ztwF7PdxhMfzJF2JMSwaEFKwg6RdnSx0XCXvoI8EqqI/fRmn+kiJdpqbXQXmot3F+uDn+QrLz+PAP4M2wBXr0M/7ZcHf7kUmthwSZZ13AwQfjzmhxasIKgM3i4dxPu8asrFoFRZx1DpVbfDvwa8O3evKtaBj4IvKWdNg0K/e8/Qt8pEQq4MsqAoF494ENkBzqFvg7fh7zrrMuu2rDU6dxAtuLhEm/iVX0F+NUEfvVw2vyazdG3vmOWsLdxB3hhUfZWyQuXaOVF9oObh3MQtpFt21p4TxzYe6SdNt+XZMMNvwI46eqZzgNu78DHK7X6dedefpV9Uu/tzkE4uMlwEB7nIORJfuYjFHL54/EstRYOLbUW/rJcHf4DYBi4HKt3x7oA+KGlDleXq8MfX2otfNYm6Un1YIbwhyb3kDbe4MUyIGjtIeEBqiMvJDsfIGRjVEcuoDV/nxft60GhtdRa+K/l6nCDbH+LZ9sqz7AV+PFydXi0nB0r/bhNcsbhYAdwS+CfchG40iWNBgT1SnXkPrJTH4cC/6RXFnWPhJMEhU9vvGjkfR34LPBSstMR9ZQS8EKy/RPYcNHw/7/06ILbNp9eOJgCfisHn/R6hxbCZZkzvx1AHmYlr7iRtDHjRXumTbX6hR24FXgjULFFVvW/gFs2l0sf+vJDjY7NEU3f4EFMBgT1+S3h7px8Wmcon0ClVn8e8KtkO2f6XK7ur4BfaKdN76P8h4P9pI0xL5gBQf3tEGaAG3LwSQt1RPQagsIru0HhW2yNVT0JvA+4rZ02P29zPK0vyMtS6EWyUxrnvGgGBPW/Y9hH+MuYDAmnaPNl9cpyhzcAtwEX2iKr+hLw9lLCfzp0oOn5DvnZ6wAKvi27AUGD6BzmyMd8BM94P0WbavWLO1lI+Elgoy2yqoeAm8/bWP7TRz/5kU6B+4BZYHsOPqnzDgwIGkAHkZdDncDdFk9LpVZ/Admww3f7zB7XfWTzEz5RwGd/hnwMMzrvIGfctSwWWdn+xpx82m3AbLfyoZNop82PXbh54yuAVwOpLbKqa4AHK7X67YaDIC2Sj51gdRT3QYhJa34f1ZFLyTbhCd0lZCdA3uMmKSf3+OcPstRaeHjjRcO/08k625cAm22Zr3sS+B3gV5daC18tSDiYBt6Uk0/7Suce5Y/lyjg7jlnyMR4J2TarE16001Op1Z8DTAM/XvCg3yEbXnhzO21+vEDP+BT5WeJ8E2ljp0+tAUFhdB55We60YhdpY8oLd0ZB4UVkx0oXMWR9vBsMPlyw5ztP4eBe0oZDCznlHIQYPXXy42JOPvEN3bFUnaZ22nzwnA3l7wT+L+DTBfnaXwDeWEp4keEgaPsBg78VBAXamUwCH8rRJ7aSsAabavWzOnAT8BayY5Rjcxj4jQR++XDabPk8B809TwwI8o3DkBCaSq3+jcCdwOuIY35Cp/vD+JZ22kwL+hzn6ewVgKtJG7M+jQYEhd+5zJCPpVCGhN4GhZeSzU8Yz/HXeJBsf4P7C/z85i0cOCnRgKCcdTK7gWsNCcVy7uVXldrLneuB/wCM5OijfxZ424Yk2fW1A3uXDAe5CQc+twYE5bCjydNe7XY2PbapVj+3A79A9ndOwB/1a8CvJ/Arh9PmVwr+zOYtHLhTogFBOQ8JcznqcAwJPVap1bcCvwz8MGGtYloG7gHe2k6bcz6ruQsHnrFiQJAdjyEhkqDwMrL5CS8J4OPsBW5up829XplcPqOuWIiU+yAUTfYQ523jEvdJ6LF22vzIhiS5iuz8js8M6GPMAa+tlJJ/YzjIdYCfMhzEybMYiqg1P0d15GDOgsIY1ZFLac17jnyPPPnofGeptbBvQ3X4vd1/9GLW51jpLwN3JPD6dtr8h/aj8x2vRm7DwY2kjXu8eAYExRUS9lEdScjXFr2GhD5Yai0cXmot/FW5OnwP8I3A8+jP8OMS2Z4cr2mnzT9dai08aevnOhzsIm1Me/Hi5RwEO6YZ8rVHwkrHNOXF649KrX412fyEF/bwf/Z/ks0zeNAWjiYc+AxGzjkIRZc95Lty9qmdk9BH7bR5fzlJXgL8FPC5Nf7PHQB+8JwN5e82HEQTDvYDO7x4VhBUjE4qj3skAOwBJl1a1T+bavULOvDvgZ8BNp3G/+uXgLeXEt5z6EDzsC0ZVTiY8JkzIMiQYIclACq1+uXArwCvOkm/8STw2wncfjhtfsGWO+7zNkW+zkgBlzMaEGRIMCToBEHhmm5Q+LZV/s9/Bry5nTY/YUsZDpR/zkHQU7If2KluZ5An24DZbsBRH7XT5n2lJPl2siGHL3b/8T8C33vBpo3fbziIMhyAex1YQZC6nVgex0ZXKgl2ZOtkU61e7cB3lZLkQ4cO7HXJYrzh4EbSxowX0IAg5T0kWApViM/TTuBNhgPliUMMWl0+t2SmG2hmuwFHCiEczOQ0HNxlOCg2d1LU8eVzS2aAzcD1VEceojX/kBdSAw4HN+Twk+8ibbzBC1hsDjHoVDq5KfI5dgqWSDWYZ2YI2A1sz2k4mPIiygqCTqWSsC+nlQSASaojB2nNOydB6xkOZoGX5vDT30vauM6LKHAOgk5V9hZ+Y04//d1uzax1Cgej5HMvEVhZBSRZQdBpy3clwZMg1e9wMAY8AGzNaThwszE9jXMQdCYd4RT5nZPg+Q3qxzMxQTbnYEsOP73hQKtyiEGnLxtu2JXTT78dd11U7wPz/YYDGRCkLCRM5TgkbAP2uVeCehAOpslvNc1woBNyiEFr7SBnyOc6b3DXRRX33jccyIAgO8pT4F4JOp37Pc97HBgOdMpcxaC1a83vpjpyKZDXkv0k1ZFFWvMPeDF1CuFglnzucWA4kAFBhoQzcI3LIHWScDAG7COfyxgNBzptDjGo153oDPkebnAZpFa7ryeBGfK5UsFwoDPiKgb1Vra64cYcf4OVZZCjXkx1w8EO4EOGA1lBkHrTqU6R3+Vf4AoHZffxDPmuiBkOdMacg6D+yPe2zPDUkdGPeNBTIYPBENWRB4BXGA5kQJAMCauFhEmqIwmt+VkvaGHCwRjZSoXLDQcyIEiGhBOZoDpyKdWRWVrzh7yoUYeDSbI9Dp5tOFDROQdB69XxTpHvOQl2vPHfozuAd3uPSgYErX8HPEF+T7xb4eTF+O7LIWAn+Z6MaDiQAUG574xXxnfzHhJ2uD1zNOFgluwArzzb1V1iLBkQZEgIwF2kjR1eUO9Dw4EMCJKd87HuBaYs6+bu/psi/3NiDAfqK3dS1GBkY/ijZOOmeXYt2c6LY17U3ISDmUjCwV2GA1lBUMyddSxjwItklQQPewr3XhslmyS7LYJv4xHl6jv3QdBgteYPUR25B6iTVRTyajNwnZsqBRsOJrpBdGsE38ZwICsIKlwnPkP+l5qB8xJCu69i2N8ArFLJgCBDQhQhYX+3M3e/hMHdS0NkRzRfG0k4cP8NrSuHGBSW1vxuqiOLwDU5/yaX4GFPgwwHY2TzDbZH8G0OAtcYDmRAkFrzD0RwfgM8ddjTBbTm7/PCrls4mALuIY75BvuBK0kbc15YrTeHGBRyRz9B/rdmPrqjdxvc/t4vsWyZvGIPMOk9IwOCtHqnH8uGSpCNI0+SNma9sD2/T0aJZwkjuAGSAuBGSQpbNu46Rv43VKIbcu7vzqpX78LBJLAvonDgBkiygiCdxo9ALBsqrXApZG/ui53AmyL6Ru5xIAOCdIY/CDPEM8acTcR0dvqZ3AejxDWk4PCTguMqBuVLtgzyAuDKCL7NEPAGqiOLtOYf8OKecjiY6oaDrZF8o5U9DrwHZAVB6tGPxN0RfSOHHE5+zWNbpQCubpEBQerLD8YE8SyDBIccTnStx8h2RdwW0bfaBewwHMiAIPXvhyOmcjPATaSNnV7cr1/jWM5SONpdpA1Xs8iAIPX5ByS2FQ7gkENsZykczZUKMiBI6/yDMkNc49PFndke3/DRyvX0wCXlhqsYFI9shUMCTETyjTYDU1RHElrzxQkJ2d4Gv9X9/rFYmYz4kA+qrCBIg/uBmSKb7R7T2+f+bjVhLuLrFuNERHC4SAYEKbgfm1niK1FPkTZ2R3i9dgDTkV0vcDKiDAhSkD86MU5ehJiWx2U7Is4A2yO7RovdazTjgygDghTuj9AMcU1ehGzPhKlcT2DMDlmaibBq4H4WioKTFBW/bPLiInBNRN9qiLxOYKyND1EduQe4jbgmIkI2V+TKqOeKyAqCFGElYYL4ls6t/ChN5eKNNd5rALDLY5plQJDyGxJGiesUwBWLwHSwOzBm80Gmieto5qPb3vkGMiBIEYSEWHfoA9jTrSbMBVY1mCGu7bBXON9A0XIOgoqnNX+I1vw9kW2qtGIUuJHqyCO05gf7o5XNNXgH2aZHQ5GGsQnnG8gKghRnNWGCeMfEB7dBT9xVA3B/AxkQpEKEhFHinJcA6725UtxzDda/PSUDgjTwkDBEtj3zDZF+w/5XE7J9DXZGXDXIz2oRyYAg9fxHbgfw7ojffns/2z7uSZ8r4tm9UjIgSGf8gxfjOQ5H691KhzgPxup/qJIMCFJuQ8IQ2byE7ZF+w7XtmxDvGQpHcwmjDAiSjvtDOE22JXCsTn9cPf42AY9olgwI0in8IMZ6qNDR7iKrKDx2gnaYIO6liytuCnZHSsmAIAUXEkaJdynkioPdkDBzzPeeAHZE/t1Xvr9DCpIBQTqjoLCTeNf4H20Pcc8vOJZDCpIBQVpzSCjCkENRuEpBMiBIPQ0Jo8Q/5BA7Nz6SDAhS34JCUYYcYnPySZmSAUHSGkOCQw754VkKkgFBWteQMEr8GwflXe92kJQMCJJOMyhME/8mQnl0O2lj2maQDAjSIEPCBMXYUCgP3NtAOkMlm0DqsbQxC4yRra3X4NwFjBkOpDNjBUHqp/hPOwyRExElA4KUi5AwinsmrBd3RJQMCFLugsI0TmDsl7UdXy3JgCANOCRM4ATGXnP5omRAkKIICUNk8xJusDHWzOWLkgFBii4ouAPjmfMcBcmAIEUdEoa6IeFaG+OUWTWQ1kHZJpAGqDV/iNb8PVRHFoE6sNlGOa79wCtJG/fYFFL/WUGQQuF5Didi1UAyIEiFDwo7gGmcmwDONZAMCJKeFhJGsZpg1UAyIEg6TlAoYjXBqoFkQJB0CiFhlGJUExaBnVYNJAOCpNMLCjFXE9wNUTIgSFpDSBgl24Uxln0TPENBMiBI6mFQiGEXRk9elAwIkvoQEobIhhzelLNPfhDYQdrY7UWUDAiS+hcUJsjPCZF3kQ0pjCwWigAAAOFJREFUWDWQDAiS1ikoTAM7CHPYwUmIkgFB0gBDwijZsEMoR0nvAmZIG7NeHMmAICmcoDDJ+lcUDpINecxYMZAMCJLCDApD3ZAwRX83WjoI7AZ2Wy2QDAiS8hkWJrp/a5nUeBDYB8wCs26LLBkQJMUVGiaA0e4fx/x3uiHgsaf9dysEkiRJkiRJkiRJkiRJkiRJkiRJkiRJkiRJkiRJkiRJkiRJkiRJkiRJkiRJkiRJkiRJkiRJkiRJkiRJkiRJkiRJkiRJkiRJkiRJkiRJkiRJkiRJkiRJkiRJkiRJkhS5/w3olTbTg6vQXgAAAABJRU5ErkJggg==;fontStyle=1;labelPosition=center;verticalLabelPosition=bottom;align=center;verticalAlign=top;" parent="k5O6sOQgrpM4FuhWETTB-32" vertex="1">
          <mxGeometry x="47.5" y="8" width="88" height="88" as="geometry" />
        </mxCell>
        <mxCell id="k5O6sOQgrpM4FuhWETTB-18" value="Private subnet" style="points=[[0,0],[0.25,0],[0.5,0],[0.75,0],[1,0],[1,0.25],[1,0.5],[1,0.75],[1,1],[0.75,1],[0.5,1],[0.25,1],[0,1],[0,0.75],[0,0.5],[0,0.25]];outlineConnect=0;gradientColor=none;html=1;whiteSpace=wrap;fontSize=12;fontStyle=0;container=1;pointerEvents=0;collapsible=0;recursiveResize=0;shape=mxgraph.aws4.group;grIcon=mxgraph.aws4.group_security_group;grStroke=0;strokeColor=#00A4A6;fillColor=#E6F6F7;verticalAlign=top;align=left;spacingLeft=30;fontColor=#147EBA;dashed=0;" parent="k5O6sOQgrpM4FuhWETTB-1" vertex="1">
          <mxGeometry x="387" y="380" width="633" height="160" as="geometry" />
        </mxCell>
        <mxCell id="k5O6sOQgrpM4FuhWETTB-34" value="EC2" style="points=[[0,0],[0.25,0],[0.5,0],[0.75,0],[1,0],[1,0.25],[1,0.5],[1,0.75],[1,1],[0.75,1],[0.5,1],[0.25,1],[0,1],[0,0.75],[0,0.5],[0,0.25]];outlineConnect=0;gradientColor=none;html=1;whiteSpace=wrap;fontSize=12;fontStyle=0;container=1;pointerEvents=0;collapsible=0;recursiveResize=0;shape=mxgraph.aws4.group;grIcon=mxgraph.aws4.group_ec2_instance_contents;strokeColor=#D86613;fillColor=none;verticalAlign=top;align=left;spacingLeft=30;fontColor=#D86613;dashed=0;" parent="k5O6sOQgrpM4FuhWETTB-18" vertex="1">
          <mxGeometry x="109.25" y="31" width="184.5" height="121" as="geometry" />
        </mxCell>
        <mxCell id="k5O6sOQgrpM4FuhWETTB-35" value="Quantum Shield" style="shape=image;aspect=fixed;image=data:image/png,iVBORw0KGgoAAAANSUhEUgAAAggAAAIICAYAAAAL/BZjAAAAx3pUWHRSYXcgcHJvZmlsZSB0eXBlIGV4aWYAAHjabVDbDcMgDPxnio7gF2DGIQ2RukHHr4mdKolyEbZzhw7baXw/W3pNEEqSXLW0UsAgTRp1KxQcfY8IskeHAgV74dNfIKPYMsf94hkP/jCKjN2qfDLSdwjLVWjimfRmFA/x7Gi2sIZRCyMmFzAMuo8FpWk9j7AMuEL9zNGAat12sxxd3P6l2vbWbO8w0WBksMis3gDPI4m7FdkisthFtK+bQM5EJ7aQpz0dSD8xEFmc5cozmAAAAYRpQ0NQSUNDIHByb2ZpbGUAAHicfZE9SMNAGIbfphZFqg5mkOKQoTrZRUUcaxWKUCHUCq06mFz6B01akhQXR8G14ODPYtXBxVlXB1dBEPwBcXZwUnSREr9LCi1ivOO4h/e+9+XuO0BoVphu9cQB3bDNdDIhZXOrUu8rQhikKSKiMKs2J8sp+I6vewT4fhfjWf51f44BLW8xICARx1nNtIk3iGc27RrnfWKRlRSN+Jx4wqQLEj9yXfX4jXPRZYFnimYmPU8sEkvFLla7mJVMnXiaOKrpBuULWY81zluc9Uqdte/JXxjOGyvLXKc1iiQWsQQZElTUUUYFNmK0G6RYSNN5wscfcf0yuVRylcHIsYAqdCiuH/wPfvfWKkxNeknhBBB6cZyPMaB3F2g1HOf72HFaJ0DwGbgyOv5qE5j9JL3R0aJHwNA2cHHd0dQ94HIHGHmqKabiSkFaQqEAvJ/RN+WA4Vugf83rW/scpw9AhnqVugEODoHxImWv+7y7r7tv/9a0+/cDYxpyoJG0k4kAAA5eaVRYdFhNTDpjb20uYWRvYmUueG1wAAAAAAA8P3hwYWNrZXQgYmVnaW49Iu+7vyIgaWQ9Ilc1TTBNcENlaGlIenJlU3pOVGN6a2M5ZCI/Pgo8eDp4bXBtZXRhIHhtbG5zOng9ImFkb2JlOm5zOm1ldGEvIiB4OnhtcHRrPSJYTVAgQ29yZSA0LjQuMC1FeGl2MiI+CiA8cmRmOlJERiB4bWxuczpyZGY9Imh0dHA6Ly93d3cudzMub3JnLzE5OTkvMDIvMjItcmRmLXN5bnRheC1ucyMiPgogIDxyZGY6RGVzY3JpcHRpb24gcmRmOmFib3V0PSIiCiAgICB4bWxuczp4bXBNTT0iaHR0cDovL25zLmFkb2JlLmNvbS94YXAvMS4wL21tLyIKICAgIHhtbG5zOnN0RXZ0PSJodHRwOi8vbnMuYWRvYmUuY29tL3hhcC8xLjAvc1R5cGUvUmVzb3VyY2VFdmVudCMiCiAgICB4bWxuczpHSU1QPSJodHRwOi8vd3d3LmdpbXAub3JnL3htcC8iCiAgICB4bWxuczpkYz0iaHR0cDovL3B1cmwub3JnL2RjL2VsZW1lbnRzLzEuMS8iCiAgICB4bWxuczp0aWZmPSJodHRwOi8vbnMuYWRvYmUuY29tL3RpZmYvMS4wLyIKICAgIHhtbG5zOnhtcD0iaHR0cDovL25zLmFkb2JlLmNvbS94YXAvMS4wLyIKICAgeG1wTU06RG9jdW1lbnRJRD0iZ2ltcDpkb2NpZDpnaW1wOjJiNjc2OWM4LTY4MDgtNGYyNy1hYTM4LTViYjM1NWE0Y2ZmYSIKICAgeG1wTU06SW5zdGFuY2VJRD0ieG1wLmlpZDo0YzFhZTU2MS1kZWNlLTQ1YmItOTgxZS1lYzM1ODJhNGYxZmYiCiAgIHhtcE1NOk9yaWdpbmFsRG9jdW1lbnRJRD0ieG1wLmRpZDozYWYyZjA1NC1mNTczLTQ0ZjgtOTBhOS1jYTM3NzhlYWE5MmIiCiAgIEdJTVA6QVBJPSIyLjAiCiAgIEdJTVA6UGxhdGZvcm09Ik1hYyBPUyIKICAgR0lNUDpUaW1lU3RhbXA9IjE3MTU2OTY1MzY5MDUzMTEiCiAgIEdJTVA6VmVyc2lvbj0iMi4xMC4zOCIKICAgZGM6Rm9ybWF0PSJpbWFnZS9wbmciCiAgIHRpZmY6T3JpZW50YXRpb249IjEiCiAgIHhtcDpDcmVhdG9yVG9vbD0iR0lNUCAyLjEwIgogICB4bXA6TWV0YWRhdGFEYXRlPSIyMDI0OjA1OjE0VDExOjIyOjE0LTAzOjAwIgogICB4bXA6TW9kaWZ5RGF0ZT0iMjAyNDowNToxNFQxMToyMjoxNC0wMzowMCI+CiAgIDx4bXBNTTpIaXN0b3J5PgogICAgPHJkZjpTZXE+CiAgICAgPHJkZjpsaQogICAgICBzdEV2dDphY3Rpb249InNhdmVkIgogICAgICBzdEV2dDpjaGFuZ2VkPSIvIgogICAgICBzdEV2dDppbnN0YW5jZUlEPSJ4bXAuaWlkOmNhNmEzMjU5LTQ5N2YtNDk0OC05YzY5LWU2YWZmZWQ2MzAzMSIKICAgICAgc3RFdnQ6c29mdHdhcmVBZ2VudD0iR2ltcCAyLjEwIChNYWMgT1MpIgogICAgICBzdEV2dDp3aGVuPSIyMDI0LTA1LTA4VDE1OjU2OjE3LTAzOjAwIi8+CiAgICAgPHJkZjpsaQogICAgICBzdEV2dDphY3Rpb249InNhdmVkIgogICAgICBzdEV2dDpjaGFuZ2VkPSIvIgogICAgICBzdEV2dDppbnN0YW5jZUlEPSJ4bXAuaWlkOmYwOWNiZDRkLTBlZjUtNDBlZS04NWY1LWJjY2IxOTE5NGMxOCIKICAgICAgc3RFdnQ6c29mdHdhcmVBZ2VudD0iR2ltcCAyLjEwIChNYWMgT1MpIgogICAgICBzdEV2dDp3aGVuPSIyMDI0LTA1LTE0VDExOjIyOjE2LTAzOjAwIi8+CiAgICA8L3JkZjpTZXE+CiAgIDwveG1wTU06SGlzdG9yeT4KICA8L3JkZjpEZXNjcmlwdGlvbj4KIDwvcmRmOlJERj4KPC94OnhtcG1ldGE+CiAgICAgICAgICAgICAgICAgICAgICAgICAgICAgICAgICAgICAgICAgICAgICAgICAgICAgICAgICAgICAgICAgICAgICAgICAgICAgICAgICAgICAgICAgICAgICAgICAgICAKICAgICAgICAgICAgICAgICAgICAgICAgICAgICAgICAgICAgICAgICAgICAgICAgICAgICAgICAgICAgICAgICAgICAgICAgICAgICAgICAgICAgICAgICAgICAgICAgICAgIAogICAgICAgICAgICAgICAgICAgICAgICAgICAgICAgICAgICAgICAgICAgICAgICAgICAgICAgICAgICAgICAgICAgICAgICAgICAgICAgICAgICAgICAgICAgICAgICAgICAgCiAgICAgICAgICAgICAgICAgICAgICAgICAgICAgICAgICAgICAgICAgICAgICAgICAgICAgICAgICAgICAgICAgICAgICAgICAgICAgICAgICAgICAgICAgICAgICAgICAgICAKICAgICAgICAgICAgICAgICAgICAgICAgICAgICAgICAgICAgICAgICAgICAgICAgICAgICAgICAgICAgICAgICAgICAgICAgICAgICAgICAgICAgICAgICAgICAgICAgICAgIAogICAgICAgICAgICAgICAgICAgICAgICAgICAgICAgICAgICAgICAgICAgICAgICAgICAgICAgICAgICAgICAgICAgICAgICAgICAgICAgICAgICAgICAgICAgICAgICAgICAgCiAgICAgICAgICAgICAgICAgICAgICAgICAgICAgICAgICAgICAgICAgICAgICAgICAgICAgICAgICAgICAgICAgICAgICAgICAgICAgICAgICAgICAgICAgICAgICAgICAgICAKICAgICAgICAgICAgICAgICAgICAgICAgICAgICAgICAgICAgICAgICAgICAgICAgICAgICAgICAgICAgICAgICAgICAgICAgICAgICAgICAgICAgICAgICAgICAgICAgICAgIAogICAgICAgICAgICAgICAgICAgICAgICAgICAgICAgICAgICAgICAgICAgICAgICAgICAgICAgICAgICAgICAgICAgICAgICAgICAgICAgICAgICAgICAgICAgICAgICAgICAgCiAgICAgICAgICAgICAgICAgICAgICAgICAgICAgICAgICAgICAgICAgICAgICAgICAgICAgICAgICAgICAgICAgICAgICAgICAgICAgICAgICAgICAgICAgICAgICAgICAgICAKICAgICAgICAgICAgICAgICAgICAgICAgICAgICAgICAgICAgICAgICAgICAgICAgICAgICAgICAgICAgICAgICAgICAgICAgICAgICAgICAgICAgICAgICAgICAgICAgICAgIAogICAgICAgICAgICAgICAgICAgICAgICAgICAgICAgICAgICAgICAgICAgICAgICAgICAgICAgICAgICAgICAgICAgICAgICAgICAgICAgICAgICAgICAgICAgICAgICAgICAgCiAgICAgICAgICAgICAgICAgICAgICAgICAgICAgICAgICAgICAgICAgICAgICAgICAgICAgICAgICAgICAgICAgICAgICAgICAgICAgICAgICAgICAgICAgICAgICAgICAgICAKICAgICAgICAgICAgICAgICAgICAgICAgICAgICAgICAgICAgICAgICAgICAgICAgICAgICAgICAgICAgICAgICAgICAgICAgICAgICAgICAgICAgICAgICAgICAgICAgICAgIAogICAgICAgICAgICAgICAgICAgICAgICAgICAgICAgICAgICAgICAgICAgICAgICAgICAgICAgICAgICAgICAgICAgICAgICAgICAgICAgICAgICAgICAgICAgICAgICAgICAgCiAgICAgICAgICAgICAgICAgICAgICAgICAgICAgICAgICAgICAgICAgICAgICAgICAgICAgICAgICAgICAgICAgICAgICAgICAgICAgICAgICAgICAgICAgICAgICAgICAgICAKICAgICAgICAgICAgICAgICAgICAgICAgICAgICAgICAgICAgICAgICAgICAgICAgICAgICAgICAgICAgICAgICAgICAgICAgICAgICAgICAgICAgICAgICAgICAgICAgICAgIAogICAgICAgICAgICAgICAgICAgICAgICAgICAgICAgICAgICAgICAgICAgICAgICAgICAgICAgICAgICAgICAgICAgICAgICAgICAgICAgICAgICAgICAgICAgICAgICAgICAgCiAgICAgICAgICAgICAgICAgICAgICAgICAgICAgICAgICAgICAgICAgICAgICAgICAgICAgICAgICAgICAgICAgICAgICAgICAgICAgICAgICAgICAgICAgICAgICAgICAgICAKICAgICAgICAgICAgICAgICAgICAgICAgICAgICAgICAgICAgICAgICAgICAgICAgICAgICAgICAgICAgICAgICAgICAgICAgICAgICAgICAgICAgICAgICAgICAgICAgICAgIAogICAgICAgICAgICAgICAgICAgICAgICAgICAKPD94cGFja2V0IGVuZD0idyI/PkgA/EEAAAAGYktHRAD/AP8A/6C9p5MAAAAJcEhZcwAA7+kAAO/pAQPEVSgAAAAHdElNRQfoBQ4OFhAVTUO1AAAgAElEQVR42u3de5xkd13n/9epmqmZXKeTSiAo3dPxZyVBlGkQIZVmmY6XJaiYxp/8TBBMR30o+0NloobgEn7pGLKCqEzWRXcVTA/+hKw/d5l4I+tl06PUVNQfcQa5JHNW7LEbDJcUaQhkpjLdtX+cajKZ9Fy7qut7vuf1fDz6AY/4kFR9zznfep/P9waSJEmSJEmSJEmSJEmSJEmSJEmSJEmSJEmSJEmSJEmSJEmSJEmSJEmSJEmSJEmSJEmSJEmSJEmSJEmSJEmSJEmSJEmSJEmSJEmSJEnKhcQmkAqkNj4BjHX/Rrv/ueUE/x/7gceAWWAOmCVtzNmQkgFBUr4DwRAw2f2bOEkYOFUHu4FhN2ljt40sGRAk5ScYjALT3WCwpY//pkVgBthpZUEyIEgKNxiMATuB7QP4t+8Bpkkbs14IyYAgKYxgMNQNBjcE8Gn2AFNWFCQDgqTBhoNJsjL/lsA+2V1kFYXHvEiSAUHS+gWDkKoGx3OQrJow6wWT8qVsE0i5DAejwH3AKwL/pEPAFNWRhNa8IUHKESsIUv7CwRjZMsMtOfvke4BJhxwkA4Ikw8Gx9gMThgTJgCDJcHCsxW5I2OdFlQwIktYWDoaAfcDWSL6RIUEKXMkmkIIPB2ORhQPIqiCz3e8mKUCuYpDCDwezwLMj/HabgeupjjxCa95KgmRAkHSa4WBLxN9yMzBJdeSgIUEyIEg6eTiYAj7c/QEtgkmqI4u05h/w4ksGBEnHDwd3F/CbX0N15FJa8x4hLRkQJB0TDnYCv1zgFhgzJEhhcJmjFE44mCHscxXWkxsqSQYEqfDBYIjsNMZrbQxDgmRAkLQSDmaBbTbGqg6Snd/gCgdpnblRkjS4cDBmODiprbihkjQQTlKUBhsOttoYJ+WGSpIBQSpEOJgEdhP3Bkj9CAluqCStI+cgSOsbDqYo5h4HvbSLtDFlM0j9ZQVBWr9wUPQ9Dnol2yuhOjJLa/6QzSH1hxUEqf/BYAjYiXsc9JrLICUDgpTrcDCLKxX6xWWQUp+4zFHqXzhwGWP/rSyDnLAppN6ygiD1Nxy4UmH93EjamLEZpN5wkqLU+3AwRbGOag7FJNWRC2jN32dTSAYEKbRwMA2824YYmCtd4SD1hkMMUm+CQQwrFRa732EC2J7zK+IKB8mAIAURDmbJ92TExe4P6r7ud5og/7s9Pv07STotrmKQ1hYOxoC5qMIBQNqY7VYSFnP8vbaQrXCY8kaVDAjSeoaDSfK/UuH4b9nZPxslK9fnOSTcTW18hzesdHocYpDOLBzsIP+TEU9tk6F4NnvaBexwXoJkQJD6EQxi2Tb59CbxZd97N05elAwIkqJ9kz7zH8na+EwE4cjJi9IpcB8E6dR+GMeAfWRb++bZvWTDCmf2Bt2a30115FJgLMdtsBm4nurII7TmDQmSAUE643AwBdxD/rdN3kXauG7NGwhlIWERuCbnIcGdF6UTcIhBOnE42Am8KYJvchdpY0eP22YKuDuCtrkXmHJegmRAkE7lx28ImAGujeDb9O8Qo2yp5wz5r67s74YEhxwkA4J03B+9se6PXt4nIy6SLeubWYf2mo0gJCx2Q8JuHwLJOQjSam/Eu8n/ZMSVmfr9H19vzT9CdeQ+oA5ckuM22wxcR3UkoTU/68MgKwiSVsLBNHBbBN/k1DZA6n37xbIMFJyXIBkQpMjmGwx2I6D42tJ5CSoshxhU9HAwRhw7BALsAa4Z6Ftva/4Qrfl7ItgrAbLhEvdLkAFBKmA4iGW+AWR7HEyueY+D3gWFGPZKAPdLUIE5xKCihoNY9jcAuJ20MR1oO08Rx14JkFVoJp2XIAOCFGcwiOXQoRU39n0Z49rbPJZlkOA5DiqQkk2gAoWDMWAuknCwCFwdfDgAuj+mE2SrK/JuC/AP3eO+JSsIUgThYAfw7ki+zWCWMa79GsS0DBJgF9lGVA45yIAg5TAYDAE7yf8RxSsGu4zR67Ha9XAppKLkKgbFHA5WljC+IqI31uty/caaLYPcTXXkAuDKCK6JSyFlBUHKWTiY6r6pbonkG/X+NMYwrtHdEX0jhxxkQJAC/+GJaQkj5GGlwplfqwmyKk8sQc4hBxkQpAB/bEa7PzaxTIJbJJuMOBv5dYvl9Myjr9uOaEOdDAhSzn5kJrs/Mr6J5vP6xbY/BTjkIAOCNPAfl9iGFPK9UmFt13KGeFY4FC/oyYAgBfJjMkpcQwrZW2famCr4dY1pzwpwyEEGBGldf0RiG1IAuIm0sdOLG+31dchBBgSpjz8csW20s/KGOUXa2O0Fftq1jm3yIuR1F0wZECR/MPzBCDAQxjZ5EawWyYAg9eyHYgcwTVwlZ48PPvXrP0NcVSOvvwwIUg/eIGeAayP7Zk5GPP17YYq4dl4Eh5dkQJDO6AdhohsOtkb2zW50RvsZ3xNjZCdCbonsm90FTFtNkAFBOvkPwTRwW4RvixPON1jzvTFKfMtbwT0TFBhPc1R4nX91ZBb44Qg7/wnSxkNe5DVqzT9GdeQe4DnAWETf7BLgDVRHFmnNP+CFlhUE6alwEONERHD9e7/vmXdH+M32dKsJc15kGRBU5E4+1omI4HK29bh/JojrRMgVTmCUAUF27pF27vGfxBjOfTRKnPMSAO7tBgUrUDIgqDBVg2niOmRpxf5uOJjzQq/7PRXbLpsGTg2MkxQ1iI58ZanaKyL8druA60gbj3ih11lr/hCt+d1URxaBayL7dpuBKaojF1AdeYDW/CEvuKwgKLZwME18yxdXON8gvBC6JcJvd5BsyMFqggwIiqbDniHOMWL3Nwjznov1HIcVbq4kA4KsGgRsZX8DO+lw77+dxDnXxWqCDAjKbcc8Srwzy7M3uLSxwwudi3txkqyCtSXae9FqgnqsZBOoTx3yDmAf8Q4p3Gg4yJFsL4EJsopPjN4E7OsuG5asICjYqsEM8Y77ul9+vu/PmJdCWk2QAUHBdr7TwA7iLeO6ZXI89+pUNyjEeq86N0EGBAXR2ca8QmGFSxjjvG93E99x4oZaGRAUTNXgtoi/4UGyHewcUojz/o35HJAVnukgA4KsGvSYe+AX536O9VTIY+/nHW4BLgOC+vnGNU2868pXOKRQzNAb+5DDItkERu9tGRDU0w50ols1iLkDdUjBADxD3EMO4GocGRBkp3laHFLQyj2/g6xStiXyb+qSSBkQdMYd5RRxLwdb4ZCCjr33izDPBrKq2Q4nMcqAoNPpHHcS74ZHR3eODinoeM9BETZWWrGHrII254WXAUHH6xB3EPfSxRWuEdepPhexn+WwYhHYSdqY9qLLgKBjO8GdxD0JcaUT3EHamPGi6zSej1Hi3kb8aO7EKAOCvt7x7ST+SYiQzd6etIyqNTwv0xSjwgbunWBAUOE7u5jPTziaxzOrV8/NBPEv+V2x2H2B2OlwnAFBdnAxdnCTlkvV42eoKMt/V7jawYCgyDu1UYoznADubaD+P1NFmcC4Yk83KLjyx4CgiN52irI6YaVq4JayWs/gPUMxJjCucJOlyJVtgkJ0XlPAPQWqGqxMRLQUqvXRmn+M1vwM1ZEEmCjIt74S+HdURw7Rmn/Am8AKgvIVDCbItost0lvN7a7h1oCfu6LswHg05ycYEJSTDmq0GwxuKNC3dt22QnsOdxL/qafH2kM27OBzaEBQYB3SyjyDoixbXOGOiAr1mZygOKuFjn0mp90/wYCgMDqiqW7VoEgd0WK3amBZU6EH9+kCVhMAbsf9EwwI8g1lnbl8UT6r+QnybrRkQNA6djZFOW1xtc7GcxSU52rCDMVZUXS0g2TDDj67BgT1qYMZpXgTEFd4HK1ieY6LtrmSQcGAoD6/eRTlXPrVqgZueiSrCXHZT1YNnPVmMCDozDuRIq5MsGqgIlUTinDM+omecZdGGhBkMLBqIB3neZ+mmCsdDAoGBBkMrBpIJ3n+JyjmSgeDggFBJ+kcpshKjUUNBlYNJKsJBgUDgo4JBtMFf2u4l2zCklWDXj3cN99xfgfeksCvdN71tp6vP6/U6j8N/H07bf6trd23asJOinWmg0HBgKCjhhKmCh4M3A2xx8o337FhKbuvfgl4TgIXd971ti/2ISC8H/gR4PeBt7bT5ryt35e+YpriHNN+sqCw075i/ZRsggEEg+yBn+s+9EUOB7uAUR/4Hrr5ju9agr8Hfgd4zjr1Ia8HPlWp1W/bVKuf60Xosex00ku7P5BFth34ELXxuW7VVVYQoqsYFHny4QpPXux9MLgceCfwA8c+132uILz+mH88D9y6oZT8/tce3rvkhel5PzJFsecpHduP7ARm3MLZCkJeH+jR7rGvKxWDoj/YtwNjhoMeJfyb76hy8x2/BnyMbMOdQYf+YWDXkeXO3kqt/nKvUM+rCTPAKFn1rei2Au8G5qiNT3dfwmQFISfBoLhbIq9mf7dqsM+m6EGyv/mOyjL8JPD/ABef5CFfzwrC0ZaB/wb8Yjtt/pNXred9zAQuiTyWx0xbQQj8oa2NzwL/bDgAskmIN5E2xgwHPXLzHd+3DA8Cv3GycBBA//Ia4B8rtfo7NtXqvuH1tpowS9oYJavKKXMD8M/Uxme7AUpWEIIIBlNk8wu22Rhf55HMvQ0G3wa8C/ie03l2E3jWgCoIx3oEuK2cJL/7xIG9R7ygPe1/RrvVhO02xtNkB0PBbvshA8J6P5ROPDz+Q+kkxN4Fg2eTzV/5CWDDGTzkoQSEFR8DfqGdNv/Ci9vzPqno5zocz2I3QO10+MGA0O+HcKwbChxCeKbbuw+haX2tD+fNd5zVgf8beCswtIaHPLSAANAB/gS4pZ02P+XV7suLi3snrO5espUPLq82IPT0wZsi24DGMt4zeX5Cj5z75rcnj3c6Pwj8MvDNPXjIQwwIK9rAbyXw9sNp84te/Z72V6M47HAiB7vtM2O/ZUBYaxp3GOH4D9kO03iPvPmOF9PhXcDLe/V8dlcxPBpoQFjxKPBLpYT/cuhA87A3Qk/7MIcdTm5XNyjM2hQGBINBbzic0Ltg8FyyrZFfB5R7/JA/q/MrwQeEFQ8Bbz5/44Y/+eIn/6bjjdHTPm3a/uykrIQexWWOqz9IU7ix0YncC1xK2pg2HKzxx/vNd5zDm++4Ffg42ZyWcsGb5Arg3i8/eeTPK7W6K4J6KduyeQw3WTqR7WTLJHe68ZIVhGODwSiO2Z2IqxN69fb9lreX2sud64A7gZE+P+R5qiAc7Qjwu8Bt7bT5iHdNT/u6CbLlf/Z19ndWEE6xarDPB2ZVi8DtpI1Rw0EP3PL2q9od/oYkeT9JMkySdPr8l9eW2kC2W+RDlVr9lk21+lnePD2rJsySNiaAG7s/hHqmrcD93aEZKwgFDQZDZBN4XLK4ul1kkxAdSlh7MBjtVgxes57hPIFnd955ax4rCMf6NPCLlVLyh48/vHfZG6qnfaDzrU5sDzBZtH6w5IPBrOHguA/EC0kb7oS41h/oW+48n1vuvINsg6Afxsrdmfom4L+2lzuzlVr9pTZHz6oJjzk/4aS2A7PdYWgrCAUIB2PdcGBifjqXLfZI+ZY7Nyxlb9i3A88Z4EN+Seedb42hgnC0JeD3gVvbaXPeu63nfeNOHG5dzSIwUZRzZUoFfgAMB8+88W/qzjMwHKzVLXd+5xI0gd8eZDiIOX8BPwp8slKr37apVj/XJulZRWFfd37C1WSnsOopW7qVhDEDguGgKG4HRkkbO22KNXrLnd/MW+78QxI+TMI2EjoB/MXsXGC6kwWF1225Ytx5Vb0LCrOkjTGcyHi8kDBqQDAcxGwX7mfQa28EfgAnAK+3YeC/HFpatpLQ+6Awc9Sx0os2yNdDwu7Y90ooTkDILuRuwwHw9AmIczZHz3UC+ysKQ1l/g8I0YFB4yjayfXMMCBGYxb3I9wBXkzYKM8lGUk9DwmNHBYW7bBCujXmfhGIEhNr4zm7aK6qDwI3dYDDrM93Pd9i+b3pUpI2SFHZQ2AFciksjb4t10mL8ASHbUvRNBQ8Go6SNGXs1ST0OCnOkjSmDAlGu/Io7IDw178BgoPWqIGAFQQaFwtka41BD7BWEaYo1KTE7MwHGDAYD4xHFMigUMyjsiG3pY7wBIRsTKsrQwkowGHXJYjAhwVUMMigUKyhs6b6UGhByoAib/hgMQhPeEAMOMcigsG5uiKmKEGdAyCYmxryPuMEg7OqBn0cqblCIpooQawVhR6Tf6yBwk8EgFyHBIQbpxEHhLuLccCmaKkJ8ASG7MNdGGAxWViXsNBj0xqZa/aKe/486xBDjfXLWplr9HFui50FhB/HuzDhlQPDCrGcwmLFX6Y1Krf68Sq3+Jx24uU/Vg9CqGVpbAw53D4O6/uzLryrbIj0NCkfvzBjToVAGBC9M36xsiWww6HHFoFKr/0dgH/B99G/vfocY4jMCfODIcucjlVr9KpujL0Fh5VCoG8n/MdNbY9hdMa6AkF2QPJ+3cC9PnZUwa6/RG5svq2+q1Oo/24GHgZ8BKn37l4W51bIhoXeuBP66Uqt/sFKrj9ocfQkLM91jpq/u9om+rBoQemIih595kaeOXZ40GPTOhc97WVKp1V+13GE/2YSoC/v+L02AhE5Af55x2Htl4DrgE5Va/e2bavXzbZK+BIVZ0sYkT618yNs8hUkDggHhTB3kqaWKHrvcY5VafezxI0t/3n0DubzATWH1oH/OBt7agU9VavUfO+uyqzbYJH0JCisrH0bJVnHlZZ7C1ryvZojths5DQNgP7HRuQd+CwSXAL5GV9zau+wfIyvn+KBfLNwDvW+p03lip1W9up83/aZP0JSg8RrYB3k5q45Nky9lD3+9mAshtXx9PQMgOZgr53IVdwIxDCP2xqVY/q5Ntrf2WAd8HBoTiehHwF5Va/Y+AN7fTZmqT9C0s7AZ2d9/Qd3RfCELs/3M9UTGmCkKIF+JgNz3OOITQH+deflWpvdz5PzvwTrKxyhAYEIqrRDb2/MpKrf6eBO48nDZbNkvfgsIc2SFJ09123wFs83fJgHCsoYA+yyIwTdrY6RPcP5Va/SXt5c6vAS8L5kNlmxIZELQJ+LkOvL5Sq0+XEt576ECzbbP0LSg89vWXsWyr/d2BVBRyHRBimqQYyoU4CEwYDvoaDIYrtfr7gb1BhYOnqgfug6AVFwPvWe7wYKVWf2X1W17mmpL+h4VZsrH/EFY9bMlzU5a8m3oeDsZIG/tsij68ktXq51Zq9Wngk8DryZabhSW8PRDcajkMzwf+9CtPLv1ZpVb/Vpuj7yFhH6HsQ5BVNAwIYspzEnrv7MuuKldq9dd34FPAbcC5oX7W7rYDnZD+vIOCuj2uAR6s1Oq/WanVn2WT9DUk7Cb/OzIaECJiOOixSq3+b450OnuB9wPPzcFPQCe0PwsIwdkI/DvgoUqt/vObavXNNknfzNgEBoRQjNoEPQsG31Sp1f8AmAVeYoucMSsI4boA+NUOfKxSq7/6vMvH7Y97L4Th3gkDwuDNBfAZxnwe12ZTrb6lUqu/A/g48Jr83aNJJ8A/b6yw1YD/fnh5+a8qtfq32xzRBYTcimmZ45yXM782X3bVxuVOZ6qT7YJ4SV6/R1JKAJZD+kjeXbkxATxQqdV/D3hbO21+xibxpc0KggGhsJ79rS9PKrX6dy93On8P/Haew0FXcMscnaiYu5e2G4FPVmr1WzfV6ufYJFYxDAhrFcZOhaM+C6euUqtf8aXDT94L/Dlh7X62hvf1JMyljsqb84E7OtmJkdefc/lVZZskt3I7eT22STGDPuXLgHAKNtXq1UqtvrObrF9FXGVwN0pSL20FPvDkcudvKrX6VTbHaXOIYQ1iO81xrvtAKUCbL6tvWu7wUx14G3BRpF8ztB9lA0Ic6sBfV2r1/w94SzttHrRJTkkIW/DntoLg+eXx3YyhVg3OWe7wABD1LnKJZzGof8rAdcCrKrX6a9tp849skhzI8c66sQWEQSe1bT4Nx88IwOUF+J7BlfWdgRCdc4BvthlOyahNYEBYsQ+41suqQSkljvtLBgQDglZTGx/yPIbicohB0lH2GBDCEcIP8xjZ9sAqoBJJpxPaEIPLHFVcozaBAWGF22pqsD/GpaSThLWTonMQVGSuajMgmFgVhrJ7D0h6yqwBIRxzBgQNNCA4B0EKQ218wkZYm7h2Ugxju2UV+4HqJIH9lZLEwCINRq4nrDvE0Hum1gJLEucgSIEIYeO6XM+LizEg7McNizS4gABulCSFwHMYDAjPMOiSzqi3VXE5SVHSUeYMCAaEo7mspsC64/3LtoQ0cBMD/wQ5nxdXivCmGPyYT23cQ5sKHBAC/PPCSLKCEAh3UyyoIIcYzAcqptEB//v35L0BYwwIs8BtPhsaSEDI3tYdYpAGz+FeA0KQJrCCUEghnuZoAUGFE8Yw75wBITxzPh0alHJ2WJP7IEiDFcISRwNCcNLGHLXxQX+KCZ/PggaEJMhlji67VNGEUEF4LO+NGOsQwyKwxWdE6y3EZY5WEFRAIVQQcn+6cKwBYR+wveA3pwagnAUE39ilwXKpuQHhuAZd2rF6UdyAAK5ikAZt8C9paWM2741YivTmCGGzpAmf0QIGBJJOcH9ulCQrCLKCIA04cbvVshSCQR/YtyeGRoy1gjAbwGewglDIgEAntL+yBQQViVvdW0HIAW9SKwhBMB+oYEKYJD4bQ0PGGRDSxmwAeyG4kqGAuvsghBYQXFUhX85kQAjIqE1QwIBA4mFNki9nswaEsO1hsHsheFBIATnEIPlyFouYA8Lgt7msjY+RNvZ5mxVH2VUMkgEhgj0QIN5VDBDGNpeOhRVMAp3Q/kqWEFQszv+ygpCDCoLHPhdOqWQFQRqwQe9kuyeWhow5IFhB0LpziEEaoDB2sH0sluaMOSDMBfAZLHUVTEKQAcFljiqKEF7Kopl3Fm9ASBtz7oWgdQ8I2T4IQf0gOwVBBRJCnzsXS2PGvg/Cfga7J7enOhaMZzFIBgQDQj6EsNRxIpYlLzIgSIFziMGAcMpmGexmSeCmHYXiJEVpoLYP/BOkDScp5sRcAJ/BgFAgVhCkAamNh9DX7ompSQ0I/Tfhk2tAkFSIl7HHYmrQ2APCPm9aracyeFiTVNyXsai21o87IKSNx6iNLzLY1QRbqY0PxTQupeMLcSdFj3uWFQQDggHh+Bds0BNXxnDL5UJISJbxNEepqAHBIYacmTMgaL24ikEamBBWMETVzxclIJhsZUCQYhXGCoaDsTVrEQLCLHDbgD+DWy4XRHerZYcYpOK9hM3F1qhWENbHdp/fYrCCIA3ERCAvo1EpRX/bpI0wUl0YJTD1+4FKkk4pSZYD+3MVg2LnGQxWEM7YHsKYqDjncxx/QMAhBmm9hfACZkDIqVCWOu72OY4+ILjMUVp/2wb+CSI8lK8oASGEZDfhMxy/crZR0pItIa2T2ngIfevBGJu2SBWEQXMlQwF4FoO07kb9jTEg5P3ibaE2PhrMpEn1KSCUDAhS8V6+DAi5lZ3JcBDYGsCNbECIWLkUZEBwFYMMCAYEA8JJLmAIAcGJilFXEMKbpChFLoR9ZgwIEQSEawf8GSZ8liMPCCXnIEjrpjYextyuSIeOixYQBs2JirEHBPdBkIrWp+6JtXENCOvLiYqRK2fhwGWOUnECwr5YG7c4ASFtzFEbXwS2DPiTTAAzPteRBgSHGCQDggEhl0LZUVGRCnSZo6sYFKsQJijOGRDiMGtAUH8DgnMQpHURxg6KUW6xXNSAEEIpyKOfYw4IpcQ5CFJxXrb2x9zABoRBJd+IU2ehA4I7KUpFCgj7Ym7gYgWEsCYqGhAiVE4wIEjr148aEAwIPTXL4DdMch5CpEpJKbghBucgKDq18SEGvzOuASFC7qiovgl0maOrGGT1oB8iHyouagXhtgF/hi3UxsdIG/t8ziOrIGQBwUmKUn+5g6IBoS/2BXSDGxBiCwh4WJO0Dib8LVmP/qxo0sZjhLE0ZcJnPMIHKkk6pSRZDuzPC6PYeIKjFYS+XthtBgT1WrlUch8EqZ9C2SCpACvRSgW9xUK4sFupjY/6tMdWQaBTSlgO7E+KSQjzDxaLcOhekSsIIZjAg5tiqyCEOEnRVQyKSQgVhNkiNHQxA0La2OfJjupPBcFJilIBAkIhJphvKPBNNov7IajHyi5zlPqnNj4WwIvdyu+HASFiIWyYlM1DKMBYVnECgpMUpehfqgpylk6pwDfarDe8ev5AhbnM0TkIMiD0zv6iNHZxKwhpY5baeAifZBLnIcRTQejhWQydTidJ/HGXQgsIs0Vp7A0Fv9n2MPgNN6wgxFRB6OlZDIkhQVrh/AMDwgAu9KADgucyWEE4UUaQFNbLlAGhQAHhtkBufANCDAGhHNw+CEYMxWIygM+wv7tdfyGUCn27hTMTddJnP5IHKrxdFJdKiRslKQqev2AFYd2FMA9hO7XxoSIl02grCKWy+yBIvVYbD+UlarZIzW5ACGMeAmTDDLu9HDkPCNlOig4xSL3vHw0IBoR1t5sw5iFMGhDyr7vngFstS/EFhINF29TOgBDWuQzKuXIpuArCYqd/n+evgR8EzvHKq2+yU2+3BfIyWSgGhMwsYWy77HLH3AeEQLZa7nCoQ+fg+KVbH+3Xv6KdNt9bqdX/ArgTuJ6iT3pW7C9PswYEA8KgHwQDQp4DQjLYZY7dasFnO3QeuWp0pO9DHe20eRB4XaVWfw/wLmDcu0A95gTFATHxZ0IpHU15KXL+QJWS5QH9LZWS5JESyf4rtz73s/XR4XWdB9FOm81KKXk58Frgn70TFFkFYX8RV5lZQQBIG3PUxg8CWwf8Sba53DHnAWEwFYQvdzqdz7x45BueGOR3f/zhvcvABzfV6vd24CbgzcD53hU6Y9nyRrdXNiAEcQPcEMDn8PCmHFvXSYodDnXgX1/4jZd8OaQ2OJw2vwbcWanVfxe4o/tc2dcor9WDwgYEhxieEmlnklkAACAASURBVMowg7sq5jkgJKXlclJa6vNfu5SUFkql0oHQwsHR2mnzX9tp8yeAlwJ/5d2h3PaHaaOQS9BN9eElxGsdZshzBaGvQwydDp0vAV98/rMvzs1uje20+eD5V4x/z6Gl5UngHcBl3ik6qez0xq0BfJJ7i3oJrCA8lRAfI9t2OQQTXpC8BoRkuVxKlnr9V0qSL5eS5NPPf/bFn8tTOFjx5YcanXba/FAp4QXAzwMt7xblpB+cLeoFMCA8ncMMWtsDlZSWe/uXPJGQLFzxrOpnrnhWtZ339jl0oHm4nTZ/PYHLgfcAbe8aHceUAcGAYEAwIMRUQej0pGqQcLic8LlyqbRw2cUXfi22djqcNr/YTps/DbwI+DPwxEkdJZzdEw8WefM6A8LRsn22DwbwSbYEdHqZTicgJMlyOUmWzvSvRHKkRPKlUpJ85puqF3zlmy4civqHs502P3HexvL3A98LfNw7SIG9JM0W+SIYEKwiqJcPVKm0XEqSpTP8e7xUSv519MItj41eOFSYA58e/eRHOu20eV85SV4E/DTwOe+kwpvy98CAYEAwIERlY6nU2VgqL53O34ZS+VC5VPrC8ND5rZGh848Ute2eOLD3yXbafE8CzwN+DTjkHVVA4QwvWEHwbjxG2pgFFgP4JA4z5FA5Oa1VDO1SKXnsOeef8+g3nH+uk/W6DqfNL7XT5i8ALwD+O85PKJpQ+r17i77c3IBgFUG9DAil0nK5VFo6yd+Rcqn0eLlU+tKzzj3bt+TjaKfN9MLNG38I+E7go7ZIYUxZPTAgGBBO7gZq40NejvzYUCotbyiVlo7zd2RDKXminCSLF569+YkLz97sm/FJPPKPf91pp83ZDUnyUuDHgM/YKhELa3hhd9EvhwEh/ORoFSFXFYTVlzmWEtqlhK+ev3nTE1vO2rRsS52erx3Yu9ROm3d35yfcCXzVVolSKP3d/u6qNgOCjpGNO93rA6PTDgjZMscjK3+lJHmylCRPnLup8sS5mypLttDaHE6bX2mnzVuB5wMfAAxbcZmyemBAyINQbpBru2U35eGBKpWWS6VkqVRKlpIkefKsjRsOn7Vxg8Ggx9pp82A7bf4I8DKgYYtEwOEFA4IBwSpCzDaUkuVyUlqqlMtPbtpQNhj0Pyg0N5aSlwOvBf7ZFrF60AOF3j3RgHAqwhpm2OEFyckDlSSdcimx7L2Ovvrw3uV22vxgkvDtG0uJcxMMCFYPDAiFulG2do8+lXQchw80Dz3+8F7DWR6Fc7QzwIwXxICQtyRpFUFSrELp3xxeMCCcIlczSFKR+jeHFwwIubxhtlAbn/JySIpK1q9tCeTTzHhBDAinLm3MEMbZDBDOJB5J6pVQqgcOLxgQzkgoVYTt7okgKRpZf3at/bwBwYDQG05WlBSLqYA+y4yXw4Bw+tLGbuBgMA+UBzhJMiD0ksMLBoQ1CWeyoisaJOVdbXyScPY+cHjBgLAmMwF9FocZJOXdlP27ASEOWflpfyCfZhu18QkviqRcCmty4n6HFwwIsaXMKS+HpJwKqQo64+UwIMR2I93gkkdJuZNNsg7pBcf5BwaEHsi2Xt5lCo/Gqyq1+sttBp1IAp8FPgB4EFRvTBLOzon3kjbmvCQGhBjTpkse1+YK4P5Krf4HlVr9UptDqzmcNh9vp80fAcaBvbbImk3bnxsQYq0ihLQnwharCD15Bl4DfLxSq9+xqVY/zybRatpp84GNpeTlwPWAb51nIptcHcrSxsXuVvoyIPRUSDfVlJejJ84Gbu3AJyu1+uvOvuyqsk2iY3314b1L7bR5TwLPB24Fvmyr5LZ6YDgwIER/Y231lMeeei7we0c6nUalVq/bHFrN4bT5tXbavBN4HnA3cMRWOWn1YBTYbj9uQIhbNqklpMmK016Unnsp8DeVWv3/rdTqwzaHVtNOm59tp80f694v99siuemn3PvAgGAVQWtSBn6EbNjhbZtq9XNsEh0nKDy4qVT6buDVwAFbZNXqwQ0BfaKdXhQDQj+rCLOEM1nRKkJ/nQv8UiebyPjD51x+lc+NnuErDzeW22lzdynhBcDPA1+yVb4upMnUi7h6wYBQsB9lqwj9Nwrc8+RyZ7ZSq7/Y5tBqDh1oHm6nzV9P4HLgN4F2wasH4W2MlO1pIwNCn2+0LI0aWIrl3wDNSq3+u5Va/Tk2h1ZzOG1+oZ023wi8CPgw0Clw9WBLQJ/HftKAsA6yFDpjFaGQNgA3Ag9VavVbNtXqZ9kkWk07bX7ivI3l7wO+F/h4AasHIQ0v7HHnRAPCegptsovpeH2dD7yjAx+r1Oo/eP4V44lNomM9+smPdNpp875SkrwIeCPweasHAzHj3WhAWM8qwhxwr1WEwvtm4L8dWlr+i0qtPmZzaDWHDux9sp02fzPJtvn+NeCQ1YN1c9CdEw0IVhFg2jMaBua7gL+r1Oq/VanVn2VzaDWH0+aX2mnzF4AXAB8izvkJVg8MCOouedwTVBXBMxoGaSPwBrL5CTdtvqy+ySbRatppM22nzR8EvhN40OpBoV7kDAgFElo63WEVYeAuAH59ucP+Sq3+fRc+72XOT9DxgsJsOUleCvwY8JkIvtLOwKoHu1zaaEAYZBVhhrA2TtqCExZDcTnwx48fWfpwpVZ/vs2h1TxxYO+Rdtq8O4FvAe4EvprT6sEoYe2aiH2hAcGb8Jne1H1YNXgJ8ArgwUqt/h831eoX2SRazeG0+eV22ryV7MTIDwJL9oNr4tJGA4JVhOOY8cIEpQL8TAc+VanV37j5snrFJtFq2mnzYDttvpZsY669OakeTFg9MCAoPz/I26mNT3pZgnMR8J+WO3y0Uqv/W5tDJwgKzY2l5OXA9UDob8IhVg9mvYsMCKHYSVjbL2efyQmLofpW4L5Krf7HlVr9MptDq/nqw3uX2mnzniQbdrgV+EqA1YMpYLsvbPEo2wQ91po/RHVkMzAR0KcaAg7Tmh9Ykj73WVsPHel0PgW8mGx2v56SAJcBP1muDg9tqA7/3VJr4ZDNomMttRaeXGot/M15z976D4e+OB9SOBgC7un2NaE4SNqY8q5ZW8ek/jwsc4S1zAfg0kFP1tlUq5/dgZuAW4DzvFlW9TngbeUkmXniwN4nbQ7loM+bBm4L7FPd6M6JVhCsIpy6F9KaH+gDs/IGVK4Ovx+4mKzE7lDX050LvKoD31+uDh9Yai3M2SQKOByMku0GGRKrBz1gx9w/Ic5F2E5tPIjdzdpp8zPttPmjwDh5maE9iEAHf1mp1f+wUqt/k82hQIX4lj7tZVk7hxj6m6ynCa/stgiMhrSr2DmXX1V+crnzw8A7gGFvnFU9AdyVwC8fTptftjkUSB83GWj1YNSLYwXBKsLp2xJa4u/O0P5Adwe528nrDnL9dRbwlu7+CVNnX3aVw4MadDgYsnoQNzuZfsrmIhwCrgnsk11BdWQ/rfmHQvpQS62F9lJrYbZcHf594BKywGCV6+nOAyaX4ZpydfihpdbCv9gkGojqyDsIb1mjcw96yM53fZL2HNkJiyFZBMZC3oK0Uqu/DPh14Du8iVa1DPwBcEs7bRoUtJ592gRwf4CfzJULVhByl7QfA0LbzXAzAaxqOElF4V8qF43c3YFPAy/BZZGrBfxvJds/obKhOvz3S60Fl0Wq3+FgCLiPsPY8sHpgQMip1vw+qiOvJiubh2SU6sgirfkHQm26I4/OLy+1FvZvqA6/t/uPXgxs9KZ6mgrZktrXlavDn9988cgnn3x0vmOzqE8vPO8gO3gsNDfRmt/nBertG4jWJ3VPEGZJbhGYIG3k4sGq1Or/B/BO4NU4yfZ4GsDPt9Pm39oUKkg/toe0MeEF6i072PWSHRiyJ8BPFtyqhhNpp81/aqfNHwK+G/BtYXXjQKNSq++q1OrPtTnUQzsD/VzTXhoDQt5NBfq5tlEb35mnhmynzfvLSfIdwE+RbU2spysDPwp8olKr//tNtfrZNonWWD2YBrYFWj2Y9QL1pxPRemnNP0Z15ALgygA/3ZVUR/bQmp/LS3N25yd8dEN1+H3ABuDbu/+pp2wCvgt4bbk6vHDWxSMPt52foNMPB2PABwP9dFfTmn/Mi9R7zkFY/wct1IOcIMBdFk9HpVa/HHgX8P3e2yd424Kfa6fNB20KnUaftY/wlmoD7HLlQv84xLDesh/f6UA/3RZgd16btp02H26nzR8AXgl83JttVduBv63U6r9TqdUvsTl0CqYDDQeLwA4vT/84xDAIrfkHAl32CNnSx4TW/Gxem3eptfBPGy8afl8HPk+2f4Lj7898MXgR8OPl6vDyhouGH1x6dOGIzaJVqgcTwG8F+uneSdq4z4vUP5ZhB/vg3R/wJ7w6hok/m2r1aic7MOunyPYL0DMdAG4+q1z648WHGs5P0EofFfJwqAcyrdObhAYh+/HdFfAn3N3tIHLtcNp8tJ02f7b7xvw/AH8An+ky4N4nlpb/R6VW/zabQ10zgYYDCHdFmAFBPbOD8E57XJHr+QjHaqfNT5y/sfxK4AeAh7z1VvU9wEcrtfpvbqrVL7I5Cl092AFcG+inu9dljevDOQiDlJ32+AjhndOwIvfzEY72tS/8C0uthQMbLxp+bwdaZPMTzvJGfEaf8B1k8xMOb7xo+B+OPLqwZLMUKhyMdasHmwP8dIvApMsa14dzEMJ4IGcJ79jUo72atLE7tmav1OrPBm4HfgzPdzieTwA3n7OhfN+XPvURh2fi74uGgFnC3BAJ4HbSxrQXyoBQpIdylGydcajjfbk6r+EMgsI2smOlr/aZWFUH+DPg5nba/JTNEXVfNAPcEOin20/aGPMirR+HGEKQ7bC4mexEvhBtBupUR+6hNX8otuZfai187txnbf29I53Ox8hOi7zQm/IZLxKXAT9Rrg5XN1SH/26ptXDIZokuHEyRrfgJ1fV52unVCoJ6/YDuI9zSHmSTgyZjvgSbavWzOvCzwC8SbkVn0D4PTJeT5L1PHNj7pM0RRd8zRja0EOo9fxdpw02RrCAUWHXkAeB6wpwcBHBFTJMWj1NNOLLUWmiUq8PvBy4AXoCrfY51DvB9HfiBcnX4f1Wfc+k/f/UL/2Kr5DccDJGtWNoa6Cc8CFwXY/XSgKBT15p/hOrIIeCagD/lBNWR/bTmo14quNRa+MpSa+GPytXhDwNXBNx5DtIlwOsPLS1vK1eHH1xqLbRskly+mPxn4BUBf8JXkzZcmjwADjGEmehnCXtVQ9STFo913uXjpcPLy68B3mlQOK4ngN9I4D8cTpuLNkdu+pop4O6AP6FDCwYEHfPQhrzF6Yr93ZBQmPXIm2r1czrwc8CbgXO9UVf1r8Ct5SR5/xMH9nq+Q9j9zBjwDwF/woPAWJH6GAOCTvXhnQQ+FPin3EPamCjapanU6iPA24EfwfkJx/NRsmOl/9qm8CXkDF3tjomD5RyEULXmH6I6cikQ8rrfUaojl9Ka312kS7PUWlhcai18qFwd/kvg+cBzvWGf4RuAG8rV4eeXq8MfXWot+BYYkmxCdMjDZXeRNv6zF8qAoOM/xLPAKwnzWOgVY1RHDtKa31e0y7PUWpjffPHI3csdPk22PfH53rRPk3QD1E+Uq8Nnb6gO//1Sa6Ftswy8ejBD2JMSXbUQ0AOssB/m0McJV0S5HfOp2lSrn9fJ5ib8HHC2N+6q5oG3bkiSD3ztwF7PdxhMfzJF2JMSwaEFKwg6RdnSx0XCXvoI8EqqI/fRmn+kiJdpqbXQXmot3F+uDn+QrLz+PAP4M2wBXr0M/7ZcHf7kUmthwSZZ13AwQfjzmhxasIKgM3i4dxPu8asrFoFRZx1DpVbfDvwa8O3evKtaBj4IvKWdNg0K/e8/Qt8pEQq4MsqAoF494ENkBzqFvg7fh7zrrMuu2rDU6dxAtuLhEm/iVX0F+NUEfvVw2vyazdG3vmOWsLdxB3hhUfZWyQuXaOVF9oObh3MQtpFt21p4TxzYe6SdNt+XZMMNvwI46eqZzgNu78DHK7X6dedefpV9Uu/tzkE4uMlwEB7nIORJfuYjFHL54/EstRYOLbUW/rJcHf4DYBi4HKt3x7oA+KGlDleXq8MfX2otfNYm6Un1YIbwhyb3kDbe4MUyIGjtIeEBqiMvJDsfIGRjVEcuoDV/nxft60GhtdRa+K/l6nCDbH+LZ9sqz7AV+PFydXi0nB0r/bhNcsbhYAdwS+CfchG40iWNBgT1SnXkPrJTH4cC/6RXFnWPhJMEhU9vvGjkfR34LPBSstMR9ZQS8EKy/RPYcNHw/7/06ILbNp9eOJgCfisHn/R6hxbCZZkzvx1AHmYlr7iRtDHjRXumTbX6hR24FXgjULFFVvW/gFs2l0sf+vJDjY7NEU3f4EFMBgT1+S3h7px8Wmcon0ClVn8e8KtkO2f6XK7ur4BfaKdN76P8h4P9pI0xL5gBQf3tEGaAG3LwSQt1RPQagsIru0HhW2yNVT0JvA+4rZ02P29zPK0vyMtS6EWyUxrnvGgGBPW/Y9hH+MuYDAmnaPNl9cpyhzcAtwEX2iKr+hLw9lLCfzp0oOn5DvnZ6wAKvi27AUGD6BzmyMd8BM94P0WbavWLO1lI+Elgoy2yqoeAm8/bWP7TRz/5kU6B+4BZYHsOPqnzDgwIGkAHkZdDncDdFk9LpVZ/Admww3f7zB7XfWTzEz5RwGd/hnwMMzrvIGfctSwWWdn+xpx82m3AbLfyoZNop82PXbh54yuAVwOpLbKqa4AHK7X67YaDIC2Sj51gdRT3QYhJa34f1ZFLyTbhCd0lZCdA3uMmKSf3+OcPstRaeHjjRcO/08k625cAm22Zr3sS+B3gV5daC18tSDiYBt6Uk0/7Suce5Y/lyjg7jlnyMR4J2TarE16001Op1Z8DTAM/XvCg3yEbXnhzO21+vEDP+BT5WeJ8E2ljp0+tAUFhdB55We60YhdpY8oLd0ZB4UVkx0oXMWR9vBsMPlyw5ztP4eBe0oZDCznlHIQYPXXy42JOPvEN3bFUnaZ22nzwnA3l7wT+L+DTBfnaXwDeWEp4keEgaPsBg78VBAXamUwCH8rRJ7aSsAabavWzOnAT8BayY5Rjcxj4jQR++XDabPk8B809TwwI8o3DkBCaSq3+jcCdwOuIY35Cp/vD+JZ22kwL+hzn6ewVgKtJG7M+jQYEhd+5zJCPpVCGhN4GhZeSzU8Yz/HXeJBsf4P7C/z85i0cOCnRgKCcdTK7gWsNCcVy7uVXldrLneuB/wCM5OijfxZ424Yk2fW1A3uXDAe5CQc+twYE5bCjydNe7XY2PbapVj+3A79A9ndOwB/1a8CvJ/Arh9PmVwr+zOYtHLhTogFBOQ8JcznqcAwJPVap1bcCvwz8MGGtYloG7gHe2k6bcz6ruQsHnrFiQJAdjyEhkqDwMrL5CS8J4OPsBW5up829XplcPqOuWIiU+yAUTfYQ523jEvdJ6LF22vzIhiS5iuz8js8M6GPMAa+tlJJ/YzjIdYCfMhzEybMYiqg1P0d15GDOgsIY1ZFLac17jnyPPPnofGeptbBvQ3X4vd1/9GLW51jpLwN3JPD6dtr8h/aj8x2vRm7DwY2kjXu8eAYExRUS9lEdScjXFr2GhD5Yai0cXmot/FW5OnwP8I3A8+jP8OMS2Z4cr2mnzT9dai08aevnOhzsIm1Me/Hi5RwEO6YZ8rVHwkrHNOXF649KrX412fyEF/bwf/Z/ks0zeNAWjiYc+AxGzjkIRZc95Lty9qmdk9BH7bR5fzlJXgL8FPC5Nf7PHQB+8JwN5e82HEQTDvYDO7x4VhBUjE4qj3skAOwBJl1a1T+bavULOvDvgZ8BNp3G/+uXgLeXEt5z6EDzsC0ZVTiY8JkzIMiQYIclACq1+uXArwCvOkm/8STw2wncfjhtfsGWO+7zNkW+zkgBlzMaEGRIMCToBEHhmm5Q+LZV/s9/Bry5nTY/YUsZDpR/zkHQU7If2KluZ5An24DZbsBRH7XT5n2lJPl2siGHL3b/8T8C33vBpo3fbziIMhyAex1YQZC6nVgex0ZXKgl2ZOtkU61e7cB3lZLkQ4cO7HXJYrzh4EbSxowX0IAg5T0kWApViM/TTuBNhgPliUMMWl0+t2SmG2hmuwFHCiEczOQ0HNxlOCg2d1LU8eVzS2aAzcD1VEceojX/kBdSAw4HN+Twk+8ibbzBC1hsDjHoVDq5KfI5dgqWSDWYZ2YI2A1sz2k4mPIiygqCTqWSsC+nlQSASaojB2nNOydB6xkOZoGX5vDT30vauM6LKHAOgk5V9hZ+Y04//d1uzax1Cgej5HMvEVhZBSRZQdBpy3clwZMg1e9wMAY8AGzNaThwszE9jXMQdCYd4RT5nZPg+Q3qxzMxQTbnYEsOP73hQKtyiEGnLxtu2JXTT78dd11U7wPz/YYDGRCkLCRM5TgkbAP2uVeCehAOpslvNc1woBNyiEFr7SBnyOc6b3DXRRX33jccyIAgO8pT4F4JOp37Pc97HBgOdMpcxaC1a83vpjpyKZDXkv0k1ZFFWvMPeDF1CuFglnzucWA4kAFBhoQzcI3LIHWScDAG7COfyxgNBzptDjGo153oDPkebnAZpFa7ryeBGfK5UsFwoDPiKgb1Vra64cYcf4OVZZCjXkx1w8EO4EOGA1lBkHrTqU6R3+Vf4AoHZffxDPmuiBkOdMacg6D+yPe2zPDUkdGPeNBTIYPBENWRB4BXGA5kQJAMCauFhEmqIwmt+VkvaGHCwRjZSoXLDQcyIEiGhBOZoDpyKdWRWVrzh7yoUYeDSbI9Dp5tOFDROQdB69XxTpHvOQl2vPHfozuAd3uPSgYErX8HPEF+T7xb4eTF+O7LIWAn+Z6MaDiQAUG574xXxnfzHhJ2uD1zNOFgluwArzzb1V1iLBkQZEgIwF2kjR1eUO9Dw4EMCJKd87HuBaYs6+bu/psi/3NiDAfqK3dS1GBkY/ijZOOmeXYt2c6LY17U3ISDmUjCwV2GA1lBUMyddSxjwItklQQPewr3XhslmyS7LYJv4xHl6jv3QdBgteYPUR25B6iTVRTyajNwnZsqBRsOJrpBdGsE38ZwICsIKlwnPkP+l5qB8xJCu69i2N8ArFLJgCBDQhQhYX+3M3e/hMHdS0NkRzRfG0k4cP8NrSuHGBSW1vxuqiOLwDU5/yaX4GFPgwwHY2TzDbZH8G0OAtcYDmRAkFrzD0RwfgM8ddjTBbTm7/PCrls4mALuIY75BvuBK0kbc15YrTeHGBRyRz9B/rdmPrqjdxvc/t4vsWyZvGIPMOk9IwOCtHqnH8uGSpCNI0+SNma9sD2/T0aJZwkjuAGSAuBGSQpbNu46Rv43VKIbcu7vzqpX78LBJLAvonDgBkiygiCdxo9ALBsqrXApZG/ui53AmyL6Ru5xIAOCdIY/CDPEM8acTcR0dvqZ3AejxDWk4PCTguMqBuVLtgzyAuDKCL7NEPAGqiOLtOYf8OKecjiY6oaDrZF8o5U9DrwHZAVB6tGPxN0RfSOHHE5+zWNbpQCubpEBQerLD8YE8SyDBIccTnStx8h2RdwW0bfaBewwHMiAIPXvhyOmcjPATaSNnV7cr1/jWM5SONpdpA1Xs8iAIPX5ByS2FQ7gkENsZykczZUKMiBI6/yDMkNc49PFndke3/DRyvX0wCXlhqsYFI9shUMCTETyjTYDU1RHElrzxQkJ2d4Gv9X9/rFYmYz4kA+qrCBIg/uBmSKb7R7T2+f+bjVhLuLrFuNERHC4SAYEKbgfm1niK1FPkTZ2R3i9dgDTkV0vcDKiDAhSkD86MU5ehJiWx2U7Is4A2yO7RovdazTjgygDghTuj9AMcU1ehGzPhKlcT2DMDlmaibBq4H4WioKTFBW/bPLiInBNRN9qiLxOYKyND1EduQe4jbgmIkI2V+TKqOeKyAqCFGElYYL4ls6t/ChN5eKNNd5rALDLY5plQJDyGxJGiesUwBWLwHSwOzBm80Gmieto5qPb3vkGMiBIEYSEWHfoA9jTrSbMBVY1mCGu7bBXON9A0XIOgoqnNX+I1vw9kW2qtGIUuJHqyCO05gf7o5XNNXgH2aZHQ5GGsQnnG8gKghRnNWGCeMfEB7dBT9xVA3B/AxkQpEKEhFHinJcA6725UtxzDda/PSUDgjTwkDBEtj3zDZF+w/5XE7J9DXZGXDXIz2oRyYAg9fxHbgfw7ojffns/2z7uSZ8r4tm9UjIgSGf8gxfjOQ5H691KhzgPxup/qJIMCFJuQ8IQ2byE7ZF+w7XtmxDvGQpHcwmjDAiSjvtDOE22JXCsTn9cPf42AY9olgwI0in8IMZ6qNDR7iKrKDx2gnaYIO6liytuCnZHSsmAIAUXEkaJdynkioPdkDBzzPeeAHZE/t1Xvr9DCpIBQTqjoLCTeNf4H20Pcc8vOJZDCpIBQVpzSCjCkENRuEpBMiBIPQ0Jo8Q/5BA7Nz6SDAhS34JCUYYcYnPySZmSAUHSGkOCQw754VkKkgFBWteQMEr8GwflXe92kJQMCJJOMyhME/8mQnl0O2lj2maQDAjSIEPCBMXYUCgP3NtAOkMlm0DqsbQxC4yRra3X4NwFjBkOpDNjBUHqp/hPOwyRExElA4KUi5AwinsmrBd3RJQMCFLugsI0TmDsl7UdXy3JgCANOCRM4ATGXnP5omRAkKIICUNk8xJusDHWzOWLkgFBii4ouAPjmfMcBcmAIEUdEoa6IeFaG+OUWTWQ1kHZJpAGqDV/iNb8PVRHFoE6sNlGOa79wCtJG/fYFFL/WUGQQuF5Didi1UAyIEiFDwo7gGmcmwDONZAMCJKeFhJGsZpg1UAyIEg6TlAoYjXBqoFkQJB0CiFhlGJUExaBnVYNJAOCpNMLCjFXE9wNUTIgSFpDSBgl24Uxln0TPENBMiBI6mFQiGEXRk9elAwIkvoQEobIhhzelLNPfhDYQdrY7UWUDAiS+hcUJsjPCZF3kQ0pjCwWigAAAOFJREFUWDWQDAiS1ikoTAM7CHPYwUmIkgFB0gBDwijZsEMoR0nvAmZIG7NeHMmAICmcoDDJ+lcUDpINecxYMZAMCJLCDApD3ZAwRX83WjoI7AZ2Wy2QDAiS8hkWJrp/a5nUeBDYB8wCs26LLBkQJMUVGiaA0e4fx/x3uiHgsaf9dysEkiRJkiRJkiRJkiRJkiRJkiRJkiRJkiRJkiRJkiRJkiRJkiRJkiRJkiRJkiRJkiRJkiRJkiRJkiRJkiRJkiRJkiRJkiRJkiRJkiRJkiRJkiRJkiRJkiRJkiRJkhS5/w3olTbTg6vQXgAAAABJRU5ErkJggg==;fontStyle=1;labelPosition=center;verticalLabelPosition=bottom;align=center;verticalAlign=top;" parent="k5O6sOQgrpM4FuhWETTB-34" vertex="1">
          <mxGeometry x="47.5" y="8" width="88" height="88" as="geometry" />
        </mxCell>
        <mxCell id="k5O6sOQgrpM4FuhWETTB-10" value="Public subnet" style="points=[[0,0],[0.25,0],[0.5,0],[0.75,0],[1,0],[1,0.25],[1,0.5],[1,0.75],[1,1],[0.75,1],[0.5,1],[0.25,1],[0,1],[0,0.75],[0,0.5],[0,0.25]];outlineConnect=0;gradientColor=none;html=1;whiteSpace=wrap;fontSize=12;fontStyle=0;container=1;pointerEvents=0;collapsible=0;recursiveResize=0;shape=mxgraph.aws4.group;grIcon=mxgraph.aws4.group_security_group;grStroke=0;strokeColor=#7AA116;fillColor=#F2F6E8;verticalAlign=top;align=left;spacingLeft=30;fontColor=#248814;dashed=0;" parent="k5O6sOQgrpM4FuhWETTB-1" vertex="1">
          <mxGeometry x="20" y="60" width="353" height="158" as="geometry" />
        </mxCell>
        <mxCell id="k5O6sOQgrpM4FuhWETTB-20" value="&lt;b&gt;NLB&lt;/b&gt;" style="sketch=0;outlineConnect=0;fontColor=#232F3E;gradientColor=none;fillColor=#8C4FFF;strokeColor=none;dashed=0;verticalLabelPosition=bottom;verticalAlign=top;align=center;html=1;fontSize=12;fontStyle=0;aspect=fixed;pointerEvents=1;shape=mxgraph.aws4.network_load_balancer;" parent="k5O6sOQgrpM4FuhWETTB-1" vertex="1">
          <mxGeometry x="187" y="244" width="78" height="78" as="geometry" />
        </mxCell>
        <mxCell id="k5O6sOQgrpM4FuhWETTB-17" value="Public subnet" style="points=[[0,0],[0.25,0],[0.5,0],[0.75,0],[1,0],[1,0.25],[1,0.5],[1,0.75],[1,1],[0.75,1],[0.5,1],[0.25,1],[0,1],[0,0.75],[0,0.5],[0,0.25]];outlineConnect=0;gradientColor=none;html=1;whiteSpace=wrap;fontSize=12;fontStyle=0;container=1;pointerEvents=0;collapsible=0;recursiveResize=0;shape=mxgraph.aws4.group;grIcon=mxgraph.aws4.group_security_group;grStroke=0;strokeColor=#7AA116;fillColor=#F2F6E8;verticalAlign=top;align=left;spacingLeft=30;fontColor=#248814;dashed=0;" parent="k5O6sOQgrpM4FuhWETTB-1" vertex="1">
          <mxGeometry x="20" y="380" width="353" height="160" as="geometry" />
        </mxCell>
        <mxCell id="k5O6sOQgrpM4FuhWETTB-30" value="&lt;b&gt;NAT&lt;/b&gt;&lt;div&gt;&lt;b&gt;Gateway&lt;/b&gt;&lt;/div&gt;" style="sketch=0;outlineConnect=0;fontColor=#232F3E;gradientColor=none;fillColor=#8C4FFF;strokeColor=none;dashed=0;verticalLabelPosition=bottom;verticalAlign=top;align=center;html=1;fontSize=12;fontStyle=0;aspect=fixed;pointerEvents=1;shape=mxgraph.aws4.nat_gateway;" parent="k5O6sOQgrpM4FuhWETTB-17" vertex="1">
          <mxGeometry x="20" y="48.5" width="39" height="39" as="geometry" />
        </mxCell>
        <mxCell id="k5O6sOQgrpM4FuhWETTB-5" value="&lt;b&gt;Internet&lt;/b&gt;&lt;div&gt;&lt;b&gt;Gateway&lt;/b&gt;&lt;/div&gt;" style="sketch=0;outlineConnect=0;fontColor=#232F3E;gradientColor=none;fillColor=#8C4FFF;strokeColor=none;dashed=0;verticalLabelPosition=bottom;verticalAlign=top;align=center;html=1;fontSize=12;fontStyle=0;aspect=fixed;pointerEvents=1;shape=mxgraph.aws4.internet_gateway;" parent="k5O6sOQgrpM4FuhWETTB-1" vertex="1">
          <mxGeometry x="37" y="263" width="40" height="40" as="geometry" />
        </mxCell>
        <mxCell id="k5O6sOQgrpM4FuhWETTB-23" value="" style="edgeStyle=orthogonalEdgeStyle;rounded=0;orthogonalLoop=1;jettySize=auto;html=1;strokeColor=#545B64;strokeWidth=2;endFill=0;endArrow=open;startArrow=none;" parent="k5O6sOQgrpM4FuhWETTB-1" source="k5O6sOQgrpM4FuhWETTB-5" target="k5O6sOQgrpM4FuhWETTB-20" edge="1">
          <mxGeometry relative="1" as="geometry">
            <mxPoint x="114" y="-125" as="sourcePoint" />
            <mxPoint x="254" y="-125" as="targetPoint" />
          </mxGeometry>
        </mxCell>
        <mxCell id="k5O6sOQgrpM4FuhWETTB-29" value="&lt;b&gt;NAT&lt;/b&gt;&lt;div&gt;&lt;b&gt;Gateway&lt;/b&gt;&lt;/div&gt;" style="sketch=0;outlineConnect=0;fontColor=#232F3E;gradientColor=none;fillColor=#8C4FFF;strokeColor=none;dashed=0;verticalLabelPosition=bottom;verticalAlign=top;align=center;html=1;fontSize=12;fontStyle=0;aspect=fixed;pointerEvents=1;shape=mxgraph.aws4.nat_gateway;" parent="k5O6sOQgrpM4FuhWETTB-1" vertex="1">
          <mxGeometry x="37" y="108" width="39" height="39" as="geometry" />
        </mxCell>
        <mxCell id="k5O6sOQgrpM4FuhWETTB-36" value="" style="edgeStyle=orthogonalEdgeStyle;rounded=0;orthogonalLoop=1;jettySize=auto;html=1;strokeColor=#545B64;strokeWidth=2;endFill=0;endArrow=open;startArrow=none;" parent="k5O6sOQgrpM4FuhWETTB-1" source="k5O6sOQgrpM4FuhWETTB-20" target="k5O6sOQgrpM4FuhWETTB-32" edge="1">
          <mxGeometry relative="1" as="geometry">
            <mxPoint x="87" y="247" as="sourcePoint" />
            <mxPoint x="197" y="247" as="targetPoint" />
            <Array as="points">
              <mxPoint x="287" y="283" />
              <mxPoint x="287" y="150" />
            </Array>
          </mxGeometry>
        </mxCell>
        <mxCell id="k5O6sOQgrpM4FuhWETTB-37" value="" style="edgeStyle=orthogonalEdgeStyle;rounded=0;orthogonalLoop=1;jettySize=auto;html=1;strokeColor=#545B64;strokeWidth=2;endFill=0;endArrow=open;startArrow=none;" parent="k5O6sOQgrpM4FuhWETTB-1" source="k5O6sOQgrpM4FuhWETTB-20" target="k5O6sOQgrpM4FuhWETTB-34" edge="1">
          <mxGeometry relative="1" as="geometry">
            <mxPoint x="97" y="257" as="sourcePoint" />
            <mxPoint x="207" y="257" as="targetPoint" />
            <Array as="points">
              <mxPoint x="287" y="283" />
              <mxPoint x="287" y="470" />
            </Array>
          </mxGeometry>
        </mxCell>
        <mxCell id="-QjtrjUzRDEMRZ5MF8oH-9" value="1" style="rounded=1;whiteSpace=wrap;html=1;fillColor=#007CBD;strokeColor=none;fontColor=#FFFFFF;fontStyle=1;fontSize=22;" parent="k5O6sOQgrpM4FuhWETTB-1" vertex="1">
          <mxGeometry x="147" y="223" width="40" height="38" as="geometry" />
        </mxCell>
        <mxCell id="k5O6sOQgrpM4FuhWETTB-42" value="&lt;b&gt;EFS&lt;/b&gt;" style="sketch=0;points=[[0,0,0],[0.25,0,0],[0.5,0,0],[0.75,0,0],[1,0,0],[0,1,0],[0.25,1,0],[0.5,1,0],[0.75,1,0],[1,1,0],[0,0.25,0],[0,0.5,0],[0,0.75,0],[1,0.25,0],[1,0.5,0],[1,0.75,0]];outlineConnect=0;fontColor=#232F3E;fillColor=#7AA116;strokeColor=#ffffff;dashed=0;verticalLabelPosition=bottom;verticalAlign=top;align=center;html=1;fontSize=12;fontStyle=0;aspect=fixed;shape=mxgraph.aws4.resourceIcon;resIcon=mxgraph.aws4.elastic_file_system;" parent="k5O6sOQgrpM4FuhWETTB-1" vertex="1">
          <mxGeometry x="907" y="246" width="78" height="78" as="geometry" />
        </mxCell>
        <mxCell id="k5O6sOQgrpM4FuhWETTB-45" value="" style="edgeStyle=orthogonalEdgeStyle;rounded=0;orthogonalLoop=1;jettySize=auto;html=1;strokeColor=#545B64;strokeWidth=2;endFill=0;endArrow=open;startArrow=none;" parent="k5O6sOQgrpM4FuhWETTB-1" source="k5O6sOQgrpM4FuhWETTB-32" target="k5O6sOQgrpM4FuhWETTB-42" edge="1">
          <mxGeometry relative="1" as="geometry">
            <mxPoint x="275" y="270" as="sourcePoint" />
            <mxPoint x="730" y="131" as="targetPoint" />
            <Array as="points">
              <mxPoint x="837" y="150" />
              <mxPoint x="837" y="285" />
            </Array>
          </mxGeometry>
        </mxCell>
        <mxCell id="k5O6sOQgrpM4FuhWETTB-46" value="" style="edgeStyle=orthogonalEdgeStyle;rounded=0;orthogonalLoop=1;jettySize=auto;html=1;strokeColor=#545B64;strokeWidth=2;endFill=0;endArrow=open;startArrow=none;" parent="k5O6sOQgrpM4FuhWETTB-1" source="k5O6sOQgrpM4FuhWETTB-34" target="k5O6sOQgrpM4FuhWETTB-42" edge="1">
          <mxGeometry relative="1" as="geometry">
            <mxPoint x="687" y="321" as="sourcePoint" />
            <mxPoint x="730" y="430" as="targetPoint" />
            <Array as="points">
              <mxPoint x="837" y="470" />
              <mxPoint x="837" y="285" />
            </Array>
          </mxGeometry>
        </mxCell>
        <mxCell id="UEzPUAAOIrF-is8g5C7q-10" value="2" style="rounded=1;whiteSpace=wrap;html=1;fillColor=#007CBD;strokeColor=none;fontColor=#FFFFFF;fontStyle=1;fontSize=22;" parent="k5O6sOQgrpM4FuhWETTB-1" vertex="1">
          <mxGeometry x="497" y="263" width="40" height="38" as="geometry" />
        </mxCell>
        <mxCell id="UEzPUAAOIrF-is8g5C7q-19" value="3" style="rounded=1;whiteSpace=wrap;html=1;fillColor=#007CBD;strokeColor=none;fontColor=#FFFFFF;fontStyle=1;fontSize=22;" parent="k5O6sOQgrpM4FuhWETTB-1" vertex="1">
          <mxGeometry x="632" y="96" width="40" height="38" as="geometry" />
        </mxCell>
        <mxCell id="UEzPUAAOIrF-is8g5C7q-20" value="4" style="rounded=1;whiteSpace=wrap;html=1;fillColor=#007CBD;strokeColor=none;fontColor=#FFFFFF;fontStyle=1;fontSize=22;" parent="k5O6sOQgrpM4FuhWETTB-1" vertex="1">
          <mxGeometry x="997" y="261" width="40" height="38" as="geometry" />
        </mxCell>
        <mxCell id="k5O6sOQgrpM4FuhWETTB-53" value="&lt;b&gt;ASG&lt;/b&gt;" style="sketch=0;points=[[0,0,0],[0.25,0,0],[0.5,0,0],[0.75,0,0],[1,0,0],[0,1,0],[0.25,1,0],[0.5,1,0],[0.75,1,0],[1,1,0],[0,0.25,0],[0,0.5,0],[0,0.75,0],[1,0.25,0],[1,0.5,0],[1,0.75,0]];outlineConnect=0;fontColor=#232F3E;fillColor=#ED7100;strokeColor=#ffffff;dashed=0;verticalLabelPosition=bottom;verticalAlign=top;align=center;html=1;fontSize=12;fontStyle=0;aspect=fixed;shape=mxgraph.aws4.resourceIcon;resIcon=mxgraph.aws4.auto_scaling2;" parent="k5O6sOQgrpM4FuhWETTB-1" vertex="1">
          <mxGeometry x="545" y="244" width="78" height="78" as="geometry" />
        </mxCell>
        <mxCell id="-QjtrjUzRDEMRZ5MF8oH-47" value="Lastwall Quantum Shield" style="text;html=1;resizable=0;points=[];autosize=1;align=left;verticalAlign=top;spacingTop=-4;fontSize=30;fontStyle=1" parent="1" vertex="1">
          <mxGeometry x="12" y="65.5" width="360" height="40" as="geometry" />
        </mxCell>
        <mxCell id="-QjtrjUzRDEMRZ5MF8oH-48" value="High-Availability Quick Start on AWS" style="text;html=1;resizable=0;points=[];autosize=1;align=left;verticalAlign=top;spacingTop=-4;fontSize=16" parent="1" vertex="1">
          <mxGeometry x="12" y="115.5" width="280" height="30" as="geometry" />
        </mxCell>
        <mxCell id="SCVMTBWpLvtzJIhz15lM-1" value="" style="line;strokeWidth=2;html=1;fontSize=14;" parent="1" vertex="1">
          <mxGeometry x="8" y="140.5" width="1642" height="10" as="geometry" />
        </mxCell>
        <mxCell id="7OVz4w7n9kzEPWy-4BBC-3" value="" style="rounded=0;whiteSpace=wrap;html=1;fillColor=#EAEDED;fontSize=22;fontColor=#FFFFFF;strokeColor=none;labelBackgroundColor=none;" parent="1" vertex="1">
          <mxGeometry x="1106.5" y="172" width="539" height="688" as="geometry" />
        </mxCell>
        <mxCell id="7OVz4w7n9kzEPWy-4BBC-4" value="1" style="rounded=1;whiteSpace=wrap;html=1;fillColor=#007CBD;strokeColor=none;fontColor=#FFFFFF;fontStyle=1;fontSize=22;labelBackgroundColor=none;" parent="1" vertex="1">
          <mxGeometry x="1124.5" y="184" width="40" height="38" as="geometry" />
        </mxCell>
        <mxCell id="7OVz4w7n9kzEPWy-4BBC-5" value="2" style="rounded=1;whiteSpace=wrap;html=1;fillColor=#007CBD;strokeColor=none;fontColor=#FFFFFF;fontStyle=1;fontSize=22;labelBackgroundColor=none;" parent="1" vertex="1">
          <mxGeometry x="1123" y="306" width="40" height="38" as="geometry" />
        </mxCell>
        <mxCell id="7OVz4w7n9kzEPWy-4BBC-6" value="3" style="rounded=1;whiteSpace=wrap;html=1;fillColor=#007CBD;strokeColor=none;fontColor=#FFFFFF;fontStyle=1;fontSize=22;labelBackgroundColor=none;" parent="1" vertex="1">
          <mxGeometry x="1123" y="426" width="40" height="38" as="geometry" />
        </mxCell>
        <mxCell id="7OVz4w7n9kzEPWy-4BBC-7" value="4" style="rounded=1;whiteSpace=wrap;html=1;fillColor=#007CBD;strokeColor=none;fontColor=#FFFFFF;fontStyle=1;fontSize=22;labelBackgroundColor=none;" parent="1" vertex="1">
          <mxGeometry x="1123" y="540" width="40" height="38" as="geometry" />
        </mxCell>
        <mxCell id="7OVz4w7n9kzEPWy-4BBC-13" value="&lt;div&gt;A Network Load Balancer is created in the public subnets to receive ingress traffic through the VPC&#39;s Internet Gateway and proxy layer 4 traffic. The NLB acts as a public network ingress point and allows scaling Quantum Shield horizontally without needing to operate on HTTP requests.&lt;/div&gt;" style="text;html=1;align=left;verticalAlign=top;spacingTop=-4;fontSize=14;labelBackgroundColor=none;whiteSpace=wrap;" parent="1" vertex="1">
          <mxGeometry x="1176" y="183.5" width="449" height="118" as="geometry" />
        </mxCell>
        <mxCell id="7OVz4w7n9kzEPWy-4BBC-14" value="The Network Load Balancer proxies requests to a Target Group of the Quantum Shield autoscaling group in the private subnet. Sticky sessions ensures that client traffic with an established TLS session continues to the same instance for as long as possible." style="text;html=1;align=left;verticalAlign=top;spacingTop=-4;fontSize=14;labelBackgroundColor=none;whiteSpace=wrap;" parent="1" vertex="1">
          <mxGeometry x="1175" y="306.5" width="450" height="115" as="geometry" />
        </mxCell>
        <mxCell id="7OVz4w7n9kzEPWy-4BBC-15" value="&lt;div&gt;TCP requests are proxied to one of the Quantum Shield instances the Network Load Balancer&#39;s request routing algorithm. The elected Quantum Shield instance, operating at layer 7, will receive the whole HTTP request, terminate the quantum-safe TLS connection, and serve or proxy the request.&lt;/div&gt;" style="text;html=1;align=left;verticalAlign=top;spacingTop=-4;fontSize=14;labelBackgroundColor=none;whiteSpace=wrap;" parent="1" vertex="1">
          <mxGeometry x="1175" y="424.5" width="450" height="117" as="geometry" />
        </mxCell>
        <mxCell id="7OVz4w7n9kzEPWy-4BBC-16" value="The Quantum Shield configuration and any live TLS keys can be shared across instances by storing them in an encrypted EFS volume. By default, certbot is used to generate a valid Let&#39;s Encrypt certificate." style="text;html=1;align=left;verticalAlign=top;spacingTop=-4;fontSize=14;labelBackgroundColor=none;whiteSpace=wrap;" parent="1" vertex="1">
          <mxGeometry x="1175" y="540.5" width="450" height="69.5" as="geometry" />
        </mxCell>
        <mxCell id="t7t3CX9cFv4hKYURGvZB-2" value="&lt;b&gt;Lambda&lt;/b&gt;&lt;div&gt;TLSRenewal&lt;/div&gt;" style="sketch=0;outlineConnect=0;fontColor=#232F3E;gradientColor=none;fillColor=#ED7100;strokeColor=none;dashed=0;verticalLabelPosition=bottom;verticalAlign=top;align=center;html=1;fontSize=12;fontStyle=0;aspect=fixed;pointerEvents=1;shape=mxgraph.aws4.lambda_function;" parent="1" vertex="1">
          <mxGeometry x="620" y="799" width="48" height="48" as="geometry" />
        </mxCell>
        <mxCell id="t7t3CX9cFv4hKYURGvZB-3" value="&lt;b&gt;SSM Run Command&lt;/b&gt;" style="sketch=0;outlineConnect=0;fontColor=#232F3E;gradientColor=none;fillColor=#E7157B;strokeColor=none;dashed=0;verticalLabelPosition=bottom;verticalAlign=top;align=center;html=1;fontSize=12;fontStyle=0;aspect=fixed;pointerEvents=1;shape=mxgraph.aws4.run_command;" parent="1" vertex="1">
          <mxGeometry x="740" y="808" width="42.55" height="30" as="geometry" />
        </mxCell>
        <mxCell id="t7t3CX9cFv4hKYURGvZB-4" value="5" style="rounded=1;whiteSpace=wrap;html=1;fillColor=#007CBD;strokeColor=none;fontColor=#FFFFFF;fontStyle=1;fontSize=22;labelBackgroundColor=none;" parent="1" vertex="1">
          <mxGeometry x="1123" y="650" width="40" height="38" as="geometry" />
        </mxCell>
        <mxCell id="t7t3CX9cFv4hKYURGvZB-5" value="Since Let&#39;s Encrypt certificates are only valid for 90 days, a Lambda function runs every day to elect one of the Quantum Shield instances to rerun certbot to check the existing certificate and renew it if necessary. In the case that the certificate is renewed, a second run command is sent to all Quantum Shield instances to reload the updated certificate." style="text;html=1;align=left;verticalAlign=top;spacingTop=-4;fontSize=14;labelBackgroundColor=none;whiteSpace=wrap;" parent="1" vertex="1">
          <mxGeometry x="1175" y="650.5" width="450" height="89.5" as="geometry" />
        </mxCell>
        <mxCell id="t7t3CX9cFv4hKYURGvZB-7" value="5" style="rounded=1;whiteSpace=wrap;html=1;fillColor=#007CBD;strokeColor=none;fontColor=#FFFFFF;fontStyle=1;fontSize=22;labelBackgroundColor=none;" parent="1" vertex="1">
          <mxGeometry x="460" y="765.75" width="40" height="38" as="geometry" />
        </mxCell>
        <mxCell id="t7t3CX9cFv4hKYURGvZB-8" value="" style="edgeStyle=orthogonalEdgeStyle;rounded=0;orthogonalLoop=1;jettySize=auto;html=1;strokeColor=#545B64;strokeWidth=2;endFill=0;endArrow=open;startArrow=none;" parent="1" source="t7t3CX9cFv4hKYURGvZB-2" target="t7t3CX9cFv4hKYURGvZB-3" edge="1">
          <mxGeometry relative="1" as="geometry">
            <mxPoint x="850.0005459384456" y="825" as="sourcePoint" />
            <mxPoint x="727.8877898935316" y="825" as="targetPoint" />
            <Array as="points">
              <mxPoint x="700" y="823" />
              <mxPoint x="700" y="823" />
            </Array>
          </mxGeometry>
        </mxCell>
        <mxCell id="t7t3CX9cFv4hKYURGvZB-9" value="&lt;b&gt;EventBridge&lt;/b&gt;&lt;div&gt;&lt;b&gt;Schedule&lt;/b&gt;&lt;div&gt;Daily&lt;/div&gt;&lt;/div&gt;" style="sketch=0;outlineConnect=0;fontColor=#232F3E;gradientColor=none;fillColor=#E7157B;strokeColor=none;dashed=0;verticalLabelPosition=bottom;verticalAlign=top;align=center;html=1;fontSize=12;fontStyle=0;aspect=fixed;pointerEvents=1;shape=mxgraph.aws4.eventbridge_scheduler;" parent="1" vertex="1">
          <mxGeometry x="510" y="804.75" width="36.5" height="36.5" as="geometry" />
        </mxCell>
        <mxCell id="t7t3CX9cFv4hKYURGvZB-10" value="" style="edgeStyle=orthogonalEdgeStyle;rounded=0;orthogonalLoop=1;jettySize=auto;html=1;strokeColor=#545B64;strokeWidth=2;endFill=0;endArrow=open;startArrow=none;" parent="1" source="t7t3CX9cFv4hKYURGvZB-9" target="t7t3CX9cFv4hKYURGvZB-2" edge="1">
          <mxGeometry relative="1" as="geometry">
            <mxPoint x="990" y="825.0999999999999" as="sourcePoint" />
            <mxPoint x="897.9994540615548" y="825" as="targetPoint" />
            <Array as="points" />
          </mxGeometry>
        </mxCell>
        <mxCell id="t7t3CX9cFv4hKYURGvZB-13" value="" style="edgeStyle=orthogonalEdgeStyle;rounded=0;orthogonalLoop=1;jettySize=auto;html=1;strokeColor=#545B64;strokeWidth=2;endFill=0;endArrow=open;startArrow=none;jumpStyle=arc;" parent="1" source="t7t3CX9cFv4hKYURGvZB-3" target="k5O6sOQgrpM4FuhWETTB-53" edge="1">
          <mxGeometry relative="1" as="geometry">
            <mxPoint x="860" y="834" as="sourcePoint" />
            <mxPoint x="792" y="834" as="targetPoint" />
            <Array as="points">
              <mxPoint x="761" y="453" />
            </Array>
          </mxGeometry>
        </mxCell>
        <mxCell id="t7t3CX9cFv4hKYURGvZB-14" value="TLS Renewal" style="fillColor=none;strokeColor=#5A6C86;dashed=1;verticalAlign=top;fontStyle=0;fontColor=#5A6C86;whiteSpace=wrap;html=1;" parent="1" vertex="1">
          <mxGeometry x="454" y="760" width="380" height="151" as="geometry" />
        </mxCell>
      </root>
    </mxGraphModel>
  </diagram>
</mxfile>
